<?xml version="1.0" encoding="UTF-8"?>
<svg version="1.1" xmlns="http://www.w3.org/2000/svg" width="1280" height="640">
<path d="M0 0 C5.48863461 3.33301831 11.02687741 6.56842947 16.59765625 9.76171875 C43.84485046 25.45337363 43.84485046 25.45337363 47.75920105 37.3991394 C48.41783244 40.75667843 48.36697903 44.08514364 48.36450195 47.49267578 C48.36971359 48.65451637 48.36971359 48.65451637 48.37503052 49.83982849 C48.38237312 51.51983043 48.38772646 53.19984197 48.39132118 54.87985611 C48.39850938 57.54619365 48.41419528 60.21234958 48.43266296 62.87863159 C48.48500906 70.45910085 48.53305551 78.03947122 48.54858398 85.62011719 C48.55871234 90.2609435 48.58816115 94.90131278 48.62990379 99.54195786 C48.64215204 101.30320643 48.64734643 103.06451974 48.64510536 104.82580948 C48.30776876 119.80352191 48.30776876 119.80352191 55.00971985 132.72561646 C56.9824209 134.57128 59.04932605 136.15707662 61.22265625 137.76171875 C62.11984375 138.46683594 63.01703125 139.17195312 63.94140625 139.8984375 C72.29614807 146.33159107 72.29614807 146.33159107 82.46875 147.5078125 C86.56077391 146.69451743 89.87285069 145.16308005 93.53515625 143.26171875 C101.64154725 139.31717999 107.86388621 137.40428896 116.72265625 140.32421875 C127.41027004 144.72588762 138.51275922 150.92238975 143.53125 161.76953125 C146.7962553 171.17717363 146.90055423 185.19406189 143.4453125 194.53125 C137.87368216 204.69547021 127.98330109 212.0537935 117.09765625 215.69921875 C107.03596212 218.21069342 99.52153467 216.33385137 90.22265625 211.76171875 C82.5076656 207.11717778 76.1023294 202.30004143 73.12890625 193.5390625 C72.18771133 189.6160647 71.9029596 185.89444677 71.78515625 181.88671875 C71.3258121 172.37938848 70.33975964 166.34798846 63.22265625 159.76171875 C60.93262161 157.80863465 58.58965248 155.93291771 56.22265625 154.07421875 C55.619375 153.58888672 55.01609375 153.10355469 54.39453125 152.60351562 C49.44396384 148.70225327 45.0421051 146.10562905 38.484375 146.3359375 C33.55430404 147.26405103 29.46386888 150.20503006 25.22265625 152.76171875 C23.89770923 153.52669581 22.57074813 154.28819117 21.2421875 155.046875 C12.07614401 160.28983968 2.97788488 165.6507217 -6.11499023 171.01934814 C-7.85902949 172.04865529 -9.60430416 173.07586825 -11.34960938 174.10302734 C-25.99837333 181.68264875 -25.99837333 181.68264875 -34.77734375 194.76171875 C-35.0797326 197.82095077 -35.10519728 200.86495128 -35.11328125 203.9375 C-35.11993805 204.82148972 -35.12659485 205.70547943 -35.13345337 206.61625671 C-35.14355684 208.48300097 -35.1482711 210.34978117 -35.14794922 212.21655273 C-35.15231341 215.05448815 -35.1886318 217.89085597 -35.2265625 220.72851562 C-35.23243317 222.54817181 -35.23640089 224.36783532 -35.23828125 226.1875 C-35.2598378 227.44727409 -35.2598378 227.44727409 -35.28182983 228.73249817 C-35.23748213 234.52785802 -34.04242038 238.92370891 -30.77734375 243.76171875 C-27.36907897 247.06598654 -23.66509025 249.55347086 -19.6262207 251.99438477 C-11.46297731 256.92892427 -4.70081514 261.87462644 -1.37280273 271.21704102 C-0.07016451 276.78382993 -0.35063491 282.51411874 -0.40234375 288.19921875 C-0.39074219 289.47087891 -0.37914062 290.74253906 -0.3671875 292.05273438 C-0.39788833 301.92305034 -1.45043514 309.88142936 -7.77734375 317.76171875 C-17.37187741 325.83916803 -31.49237833 335.31300027 -44.39453125 335.02734375 C-57.39994657 333.57755975 -69.26123955 325.32082097 -78.77734375 316.76171875 C-80.38671875 314.62109375 -80.38671875 314.62109375 -81.52734375 312.51171875 C-81.9140625 311.8259375 -82.30078125 311.14015625 -82.69921875 310.43359375 C-85.44968496 303.61722096 -86.14236154 296.74544011 -86.08984375 289.44921875 C-86.08138428 288.20918091 -86.08138428 288.20918091 -86.07275391 286.9440918 C-85.86736744 276.52123703 -84.3452415 267.39614747 -76.77734375 259.76171875 C-71.02185919 254.51783282 -64.44263535 250.66456573 -57.6953125 246.8515625 C-53.29813756 243.70231405 -50.82514903 240.04674902 -49.77734375 234.76171875 C-49.50511481 229.29163996 -49.46404599 223.82290206 -49.42724609 218.34667969 C-49.41074203 216.55064893 -49.38352569 214.75468233 -49.34521484 212.95898438 C-48.60418468 198.40149207 -48.60418468 198.40149207 -54.77734375 185.76171875 C-57.91818788 183.17333813 -61.24616459 181.27943958 -64.83984375 179.38671875 C-66.83132479 178.27580666 -68.82219808 177.16380446 -70.8125 176.05078125 C-71.8142627 175.50196289 -72.81602539 174.95314453 -73.84814453 174.38769531 C-78.22638249 171.95736819 -82.49894538 169.36245748 -86.77734375 166.76171875 C-88.40035891 165.78532252 -90.02406575 164.81007518 -91.6484375 163.8359375 C-92.88182861 163.09609619 -92.88182861 163.09609619 -94.14013672 162.34130859 C-99.03457908 159.40971795 -103.93464967 156.48778197 -108.83984375 153.57421875 C-109.78666016 153.00896484 -110.73347656 152.44371094 -111.70898438 151.86132812 C-112.58876953 151.33990234 -113.46855469 150.81847656 -114.375 150.28125 C-115.54301147 149.58672729 -115.54301147 149.58672729 -116.73461914 148.87817383 C-120.83815346 146.63537922 -124.15881233 146.45381666 -128.77734375 146.76171875 C-134.67907161 148.83626551 -139.12133214 151.97552627 -143.96484375 155.88671875 C-145.01188477 156.68335938 -145.01188477 156.68335938 -146.08007812 157.49609375 C-152.27076471 162.46749192 -155.23706811 167.67824009 -156.28125 175.5703125 C-156.31025391 177.36662109 -156.31025391 177.36662109 -156.33984375 179.19921875 C-156.8414694 189.88277783 -158.81574594 198.18184138 -166.77734375 205.76171875 C-175.93116508 212.50912313 -186.06510434 218.4569113 -197.77734375 216.76171875 C-208.77254753 214.0129178 -220.76652812 207.72529901 -226.77734375 197.76171875 C-229.63476275 191.30049028 -230.244562 185.32768229 -230.15234375 178.32421875 C-230.16974609 177.0084082 -230.16974609 177.0084082 -230.1875 175.66601562 C-230.15109915 167.43335603 -228.83872027 158.73694254 -222.96484375 152.5546875 C-214.07370731 145.26713103 -202.83395925 138.33055044 -191.02734375 138.63671875 C-185.79204125 139.34575184 -181.49095146 141.79032958 -176.89306641 144.22729492 C-172.18102701 146.68134774 -168.1356732 148.42493045 -162.77734375 147.76171875 C-153.39203768 144.58025907 -142.3288907 135.99990884 -136.77734375 127.76171875 C-134.84272028 123.05000942 -134.49348021 118.75685701 -134.52197266 113.7277832 C-134.5183522 112.94478348 -134.51473175 112.16178375 -134.51100159 111.35505676 C-134.50413384 109.66254652 -134.50159721 107.97001425 -134.50294876 106.27749062 C-134.50391901 103.5896438 -134.49091133 100.90219145 -134.47396851 98.21440125 C-134.42785865 90.57501292 -134.40311492 82.93566538 -134.39648438 75.29614258 C-134.39144222 70.6141318 -134.36705459 65.93253269 -134.33115768 61.25066185 C-134.32142064 59.47627432 -134.31899411 57.70182971 -134.32432938 55.92742348 C-134.38492422 34.77695267 -134.38492422 34.77695267 -127.77392578 26.14624023 C-122.34291105 21.77596077 -116.77990963 18.14540037 -110.65234375 14.82421875 C-108.77404102 13.77859762 -106.89643848 12.73171776 -105.01953125 11.68359375 C-103.66166504 10.93045898 -103.66166504 10.93045898 -102.27636719 10.16210938 C-99.06728849 8.36382143 -95.92197591 6.48319545 -92.77734375 4.57421875 C-91.60714091 3.86917706 -90.43653837 3.16479852 -89.265625 2.4609375 C-86.66712659 0.89883079 -84.06987784 -0.66527066 -81.47412109 -2.23193359 C-78.29512104 -4.14827109 -75.10825828 -6.05108592 -71.91772461 -7.94815063 C-70.63183247 -8.71534147 -69.3482316 -9.48638792 -68.06713867 -10.26156616 C-40.74535238 -26.78153899 -25.07643453 -15.24425264 0 0 Z M-59.21484375 1.94921875 C-60.15440918 2.48804688 -61.09397461 3.026875 -62.06201172 3.58203125 C-64.98818487 5.27564258 -67.8859009 7.00955255 -70.77734375 8.76171875 C-71.67759277 9.30650879 -72.5778418 9.85129883 -73.50537109 10.41259766 C-77.88237037 13.07738234 -82.23251697 15.78136691 -86.56640625 18.515625 C-90.12956186 20.7559203 -93.72583024 22.92154185 -97.36328125 25.0390625 C-98.27126465 25.57015625 -99.17924805 26.10125 -100.11474609 26.6484375 C-101.83630729 27.6511293 -103.56290779 28.64523998 -105.29541016 29.62890625 C-112.31588392 33.73618156 -116.57814903 37.64883442 -118.77734375 45.76171875 C-118.96585261 48.26145643 -119.05327895 50.76981833 -119.06787109 53.27661133 C-119.07458832 54.00430222 -119.08130554 54.7319931 -119.08822632 55.48173523 C-119.1071318 57.87331076 -119.1111268 60.26460451 -119.11328125 62.65625 C-119.11971472 64.33005384 -119.12644349 66.00385656 -119.13345337 67.67765808 C-119.14540777 71.18202316 -119.14913613 74.68628981 -119.14794922 78.19067383 C-119.14774622 82.66267865 -119.17503675 87.13404665 -119.20949364 91.60590076 C-119.23182407 95.06250357 -119.23578488 98.51895465 -119.23472977 101.97562218 C-119.23707693 103.62332031 -119.24585019 105.27102319 -119.2613945 106.91864967 C-119.5738122 120.71959694 -119.5738122 120.71959694 -113.15881348 132.51649475 C-108.95707255 136.45926603 -103.90721237 139.22246657 -98.90234375 142.01171875 C-97.20930037 142.9733687 -95.51659873 143.93562053 -93.82421875 144.8984375 C-92.97794922 145.37716309 -92.13167969 145.85588867 -91.25976562 146.34912109 C-87.5344512 148.46897448 -83.84253924 150.64398263 -80.15234375 152.82421875 C-79.12524292 153.42907104 -79.12524292 153.42907104 -78.07739258 154.04614258 C-74.43123132 156.19338833 -70.7888397 158.34691276 -67.1484375 160.50390625 C-66.38547363 160.95499756 -65.62250977 161.40608887 -64.83642578 161.87084961 C-63.38455943 162.72931569 -61.93364429 163.58939346 -60.48388672 164.45141602 C-52.3133688 169.50013693 -52.3133688 169.50013693 -43.02734375 171.26171875 C-42.08375 171.29265625 -41.14015625 171.32359375 -40.16796875 171.35546875 C-31.79865127 169.88987398 -24.30267615 164.39728446 -17.15234375 160.01171875 C-11.08847809 156.32598317 -4.99859985 152.73690369 1.22265625 149.32421875 C7.59029965 145.78335595 13.81117508 142.02482201 19.97265625 138.13671875 C20.83117187 137.61021729 21.6896875 137.08371582 22.57421875 136.54125977 C28.34044118 132.84238006 31.61027614 129.64412125 33.80535889 122.99725342 C34.39045877 119.86277142 34.36680265 116.82988638 34.38378906 113.64160156 C34.38875397 112.93210358 34.39371887 112.22260559 34.39883423 111.49160767 C34.4134127 109.14934306 34.42025131 106.80714623 34.42578125 104.46484375 C34.4315371 102.83062744 34.43729478 101.19641113 34.4430542 99.56219482 C34.45355251 96.13586107 34.45940254 92.70955069 34.46289062 89.28320312 C34.46836701 84.90757427 34.49238151 80.5322579 34.52086258 76.15672684 C34.53955232 72.77995929 34.54469796 69.40326599 34.5462265 66.02645111 C34.54924025 64.41421555 34.55722533 62.8019809 34.57041168 61.18979645 C34.96813397 48.00532929 34.96813397 48.00532929 29.32788086 36.44140625 C23.80875504 31.78788988 18.14799004 28.15404138 11.78515625 24.76171875 C1.70075405 19.23656408 -8.08981387 13.34910811 -17.82006836 7.23046875 C-20.78825203 5.37643446 -23.77459791 3.55914066 -26.77734375 1.76171875 C-27.62216309 1.2409375 -28.46698242 0.72015625 -29.33740234 0.18359375 C-39.97806497 -5.85197828 -49.09597277 -4.14127762 -59.21484375 1.94921875 Z M-205.77734375 159.76171875 C-207.13859375 160.59703125 -207.13859375 160.59703125 -208.52734375 161.44921875 C-212.81444975 165.85541103 -214.98094418 171.17903925 -215.21484375 177.32421875 C-214.82634197 184.7575528 -212.1180746 190.5396708 -206.77734375 195.76171875 C-200.92039948 200.05770065 -194.88022711 200.76752851 -187.77734375 199.76171875 C-181.58938502 197.96177895 -177.22847232 194.14275474 -173.77734375 188.76171875 C-170.88967077 181.54253629 -170.82213497 174.69068692 -173.80078125 167.578125 C-176.85316509 161.90069107 -182.75921339 157.7677622 -188.77734375 155.76171875 C-195.45393499 154.95842079 -200.13231625 156.20881767 -205.77734375 159.76171875 Z M90.6328125 164.73046875 C86.60436682 170.53321599 86.48047347 176.91080077 87.22265625 183.76171875 C88.82587518 190.25577009 91.87482112 193.90524918 97.3203125 197.66796875 C102.56114468 200.68117821 108.3739283 200.49458855 114.22265625 199.76171875 C120.69537371 197.34559419 125.0032473 193.68081362 128.3828125 187.69140625 C130.66363707 182.45081399 131.12138762 176.961419 129.57421875 171.453125 C126.74174719 164.27510946 122.45799157 160.52644711 115.78515625 156.88671875 C105.4598075 153.6260823 97.26074751 156.39648214 90.6328125 164.73046875 Z M-66.77734375 271.76171875 C-71.63576048 279.9707677 -72.1805206 289.42206433 -70.12890625 298.69140625 C-66.80066165 308.05031629 -59.94476612 312.14412283 -51.40625 316.55859375 C-45.28046665 319.36207261 -40.63631866 318.98367529 -34.40625 316.91015625 C-28.01746717 314.11921695 -21.41486614 309.82425606 -17.77734375 303.76171875 C-14.52115123 294.12386425 -13.90624926 282.17358383 -18.39453125 272.8046875 C-20.89039684 269.11729286 -23.96488806 266.97307429 -27.77734375 264.76171875 C-28.97810547 264.03275391 -28.97810547 264.03275391 -30.203125 263.2890625 C-43.7997516 255.69778886 -55.92098505 261.85213552 -66.77734375 271.76171875 Z " fill="#000000" transform="translate(353.77734375,161.23828125)"/>
<path d="M0 0 C1.30771362 -0.00956978 1.30771362 -0.00956978 2.6418457 -0.01933289 C3.592771 -0.02044571 4.54369629 -0.02155853 5.5234375 -0.02270508 C6.49949951 -0.02603348 7.47556152 -0.02936188 8.48120117 -0.03279114 C10.55598478 -0.03786808 12.63077659 -0.04019923 14.70556641 -0.04003906 C17.8572373 -0.04220798 21.0085482 -0.06030649 24.16015625 -0.0793457 C26.17708214 -0.08228311 28.19400969 -0.08426558 30.2109375 -0.08520508 C31.61303467 -0.09598335 31.61303467 -0.09598335 33.04345703 -0.10697937 C43.70785316 -0.07040252 51.9714076 1.76907298 60 9.05151367 C70.22728929 19.62354305 73.06828061 33.17953837 72.89453125 47.52807617 C72.44691781 61.51638082 69.43871195 75.21075212 58.8984375 85.14526367 C50.64313376 91.50067062 42.90603893 92.44793799 32.75 92.37573242 C31.17029922 92.37504509 31.17029922 92.37504509 29.5586853 92.37434387 C27.34493881 92.37133481 25.13119419 92.36348907 22.91748047 92.35107422 C19.51392202 92.33271234 16.11063427 92.33056544 12.70703125 92.33081055 C10.55468513 92.32589889 8.40234086 92.32007212 6.25 92.31323242 C5.22717926 92.3121196 4.20435852 92.31100677 3.15054321 92.30986023 C2.21221649 92.30348038 1.27388977 92.29710052 0.30712891 92.29052734 C-0.52225189 92.28671555 -1.35163269 92.28290375 -2.20614624 92.27897644 C-4.1015625 92.14526367 -4.1015625 92.14526367 -5.1015625 91.14526367 C-5.20208125 88.35074097 -5.23772144 85.58090012 -5.23095703 82.78588867 C-5.23270935 81.90952759 -5.23446167 81.0331665 -5.23626709 80.13024902 C-5.24068682 77.2185674 -5.23774719 74.30694597 -5.234375 71.39526367 C-5.235048 69.38126616 -5.236018 67.36726872 -5.23727417 65.35327148 C-5.23875131 61.12637562 -5.23659608 56.89950084 -5.23193359 52.67260742 C-5.2262363 47.24145835 -5.22951522 41.81035868 -5.23550606 36.37921143 C-5.23911124 32.2186648 -5.23797328 28.05812998 -5.23537827 23.89758301 C-5.23470888 21.89440912 -5.23553783 19.89123418 -5.23785782 17.88806152 C-5.24038365 15.09355815 -5.23654474 12.29913596 -5.23095703 9.50463867 C-5.23298126 8.66823853 -5.23500549 7.83183838 -5.23709106 6.97009277 C-5.21123051 0.02579581 -5.21123051 0.02579581 0 0 Z M17.8984375 20.14526367 C17.8984375 37.63526367 17.8984375 55.12526367 17.8984375 73.14526367 C31.1100589 73.82436157 31.1100589 73.82436157 42.7109375 69.08276367 C49.74171117 59.64143903 50.78631618 49.35391667 49.2734375 37.83276367 C48.03893279 31.68460535 46.06390477 27.0319074 41.390625 22.77026367 C34.20897013 18.1327825 26.42526719 20.14526367 17.8984375 20.14526367 Z " fill="#000000" transform="translate(554.1015625,177.854736328125)"/>
<path d="M0 0 C0.89460937 -0.00128906 1.78921875 -0.00257813 2.7109375 -0.00390625 C3.65195312 -0.00003906 4.59296875 0.00382813 5.5625 0.0078125 C6.97402344 0.00201172 6.97402344 0.00201172 8.4140625 -0.00390625 C9.75597656 -0.00197266 9.75597656 -0.00197266 11.125 0 C11.95128906 0.00112793 12.77757812 0.00225586 13.62890625 0.00341797 C15.5625 0.1328125 15.5625 0.1328125 16.5625 1.1328125 C16.72014405 2.91150976 16.81350677 4.69599726 16.87890625 6.48046875 C16.92080078 7.56005859 16.96269531 8.63964844 17.00585938 9.75195312 C17.04517578 10.88826172 17.08449219 12.02457031 17.125 13.1953125 C17.16818359 14.33548828 17.21136719 15.47566406 17.25585938 16.65039062 C17.36232839 19.47773445 17.46434207 22.30516988 17.5625 25.1328125 C18.56667969 24.648125 19.57085938 24.1634375 20.60546875 23.6640625 C27.41857863 20.76005789 35.45228824 20.95691086 42.51171875 22.9765625 C51.10899561 26.87364359 56.23771859 33.399528 59.8359375 41.95703125 C63.43806653 52.74405206 63.07026264 67.05522376 58.88671875 77.55078125 C54.54386356 86.01870832 48.68880142 92.09071203 39.5625 95.1328125 C37.19064433 95.28069799 34.81378698 95.35400902 32.4375 95.3828125 C31.17679688 95.40859375 29.91609375 95.434375 28.6171875 95.4609375 C25.53431461 95.36058946 23.10971325 94.70538385 20.2265625 93.625 C15.12004719 91.77644803 10.43925188 91.82541531 5.0625 92.0078125 C3.28134393 92.05094591 1.50008894 92.09022912 -0.28125 92.125 C-1.05662109 92.14933105 -1.83199219 92.17366211 -2.63085938 92.19873047 C-4.4375 92.1328125 -4.4375 92.1328125 -5.4375 91.1328125 C-5.53801875 88.33828979 -5.57365894 85.56844895 -5.56689453 82.7734375 C-5.56864685 81.89707642 -5.57039917 81.02071533 -5.57220459 80.11779785 C-5.57662432 77.20611623 -5.57368469 74.2944948 -5.5703125 71.3828125 C-5.5709855 69.36881498 -5.5719555 67.35481755 -5.57321167 65.34082031 C-5.57468881 61.11392445 -5.57253358 56.88704967 -5.56787109 52.66015625 C-5.5621738 47.22900718 -5.56545272 41.79790751 -5.57144356 36.36676025 C-5.57504874 32.20621363 -5.57391078 28.04567881 -5.57131577 23.88513184 C-5.57064638 21.88195795 -5.57147533 19.87878301 -5.57379532 17.87561035 C-5.57632115 15.08110698 -5.57248224 12.28668479 -5.56689453 9.4921875 C-5.56891876 8.65578735 -5.57094299 7.81938721 -5.57302856 6.9576416 C-5.54714652 0.00757216 -5.54714652 0.00757216 0 0 Z M21.5625 43.1328125 C17.29404295 49.16333723 15.85819921 54.72461158 16.5625 62.1328125 C17.48900879 66.84387416 18.79954732 70.8669678 22.3125 74.2578125 C25.45215165 76.40777679 25.45215165 76.40777679 29.125 76.2578125 C33.19904074 74.92449008 34.90721881 73.47088029 37.5625 70.1328125 C40.61767816 63.88309718 40.80162091 56.25257018 38.8046875 49.61328125 C37.09774041 45.99105888 35.28733752 42.88567722 31.5625 41.1328125 C27.68906885 40.72933009 24.7022157 40.72569713 21.5625 43.1328125 Z " fill="#000000" transform="translate(862.4375,177.8671875)"/>
<path d="M0 0 C0.89460938 -0.00128906 1.78921875 -0.00257813 2.7109375 -0.00390625 C3.65195313 -0.00003906 4.59296875 0.00382813 5.5625 0.0078125 C6.97402344 0.00201172 6.97402344 0.00201172 8.4140625 -0.00390625 C9.75597656 -0.00197266 9.75597656 -0.00197266 11.125 0 C11.95128906 0.00112793 12.77757812 0.00225586 13.62890625 0.00341797 C15.5625 0.1328125 15.5625 0.1328125 16.5625 1.1328125 C16.66301875 3.92733521 16.69865894 6.69717605 16.69189453 9.4921875 C16.69452301 10.80672913 16.69452301 10.80672913 16.69720459 12.14782715 C16.70162432 15.05950877 16.69868469 17.9711302 16.6953125 20.8828125 C16.6959855 22.89681002 16.6969555 24.91080745 16.69821167 26.92480469 C16.69968881 31.15170055 16.69753358 35.37857533 16.69287109 39.60546875 C16.6871738 45.03661782 16.69045272 50.46771749 16.69644356 55.89886475 C16.70004874 60.05941137 16.69891078 64.21994619 16.69631577 68.38049316 C16.69564638 70.38366705 16.69647533 72.38684199 16.69879532 74.39001465 C16.70132115 77.18451802 16.69748224 79.97894021 16.69189453 82.7734375 C16.69391876 83.60983765 16.69594299 84.44623779 16.69802856 85.3079834 C16.67676242 91.01855008 16.67676242 91.01855008 15.5625 92.1328125 C14.00863583 92.18346975 12.45252218 92.16836847 10.8984375 92.125 C9.46177734 92.09986328 9.46177734 92.09986328 7.99609375 92.07421875 C5.98027101 92.03045248 3.96460587 91.97856209 1.94921875 91.91796875 C-4.29930826 91.78750737 -4.29930826 91.78750737 -10.18359375 93.61328125 C-16.42317382 96.52708275 -24.32400129 96.21092137 -30.94140625 94.4765625 C-39.69595156 90.50189614 -45.07187445 82.88869773 -48.4375 74.1328125 C-52.0427712 62.22790657 -51.44546413 49.25911926 -46.25 37.9453125 C-42.76337198 31.45121295 -37.81474372 25.88985188 -31.01171875 22.7890625 C-27.45724483 21.88291437 -23.96024947 21.7380126 -20.3125 21.6953125 C-19.63131104 21.68508057 -18.95012207 21.67484863 -18.24829102 21.66430664 C-13.60833428 21.74505555 -10.41923664 22.79462759 -6.4375 25.1328125 C-6.39991577 24.05012085 -6.39991577 24.05012085 -6.36157227 22.94555664 C-6.24598698 19.6952775 -6.12309226 16.44531562 -6 13.1953125 C-5.96068359 12.05900391 -5.92136719 10.92269531 -5.88085938 9.75195312 C-5.81801758 8.13256836 -5.81801758 8.13256836 -5.75390625 6.48046875 C-5.71724854 5.48023682 -5.68059082 4.48000488 -5.64282227 3.44946289 C-5.28518038 -0.58580924 -3.63097349 0.00495648 0 0 Z M-25.4375 46.1328125 C-28.82339076 52.91727527 -29.33446283 59.46430372 -27.3125 66.7578125 C-25.61123684 71.43029584 -23.68920007 73.54844579 -19.4375 76.1328125 C-15.64759516 76.82891747 -14.07681301 76.50450611 -10.75 74.5703125 C-5.2361503 68.75841687 -4.89435154 63.06714621 -5.08203125 55.30078125 C-5.69299519 49.85581686 -7.59877113 46.09412329 -11.3125 42.1328125 C-17.08395237 39.41683492 -21.63153881 41.29396509 -25.4375 46.1328125 Z " fill="#000000" transform="translate(1164.4375,177.8671875)"/>
<path d="M0 0 C0.89460937 -0.00128906 1.78921875 -0.00257813 2.7109375 -0.00390625 C3.65195312 -0.00003906 4.59296875 0.00382812 5.5625 0.0078125 C6.97402344 0.00201172 6.97402344 0.00201172 8.4140625 -0.00390625 C9.75597656 -0.00197266 9.75597656 -0.00197266 11.125 0 C11.95128906 0.00112793 12.77757812 0.00225586 13.62890625 0.00341797 C15.5625 0.1328125 15.5625 0.1328125 16.5625 1.1328125 C16.72279688 4.08810754 16.82207328 7.02263707 16.87890625 9.98046875 C16.89968735 10.8668956 16.92046844 11.75332245 16.94187927 12.66661072 C17.007474 15.5094295 17.06630552 18.35234367 17.125 21.1953125 C17.1681758 23.11784856 17.21178978 25.04037484 17.25585938 26.96289062 C17.36316543 31.68609918 17.46440451 36.40940403 17.5625 41.1328125 C19.10547948 39.4465128 20.64681225 37.7587063 22.1875 36.0703125 C22.64998138 35.57136978 23.11246277 35.07242706 23.58895874 34.55836487 C26.11613059 31.81307946 28.34776994 29.02898849 30.4765625 25.97265625 C32.33275835 23.7827109 33.2374358 23.2018209 36.08105469 22.59814453 C39.06728146 22.44371944 41.95291887 22.5200887 44.9375 22.6953125 C45.95972656 22.72689453 46.98195313 22.75847656 48.03515625 22.79101562 C50.54725434 22.87318706 53.05336534 22.98796902 55.5625 23.1328125 C56.13671875 25.52416992 56.13671875 25.52416992 56.5625 28.1328125 C55.375 29.87109375 55.375 29.87109375 53.5625 31.4453125 C50.19435723 34.53165847 47.17568264 37.74422967 44.2109375 41.21875 C43.16175466 42.43699548 42.08577485 43.63302164 40.9765625 44.796875 C39.37196075 46.45955824 39.37196075 46.45955824 37.5625 49.1328125 C37.89849315 52.98958496 39.27584295 55.73091699 41.2578125 59.01171875 C41.80614746 59.92775879 42.35448242 60.84379883 42.91943359 61.78759766 C43.50289551 62.74714355 44.08635742 63.70668945 44.6875 64.6953125 C45.2748291 65.67806152 45.8621582 66.66081055 46.46728516 67.67333984 C48.95541695 71.83489323 51.46348447 75.98286439 54.015625 80.10546875 C54.64984375 81.14574219 55.2840625 82.18601562 55.9375 83.2578125 C56.48148438 84.12664062 57.02546875 84.99546875 57.5859375 85.890625 C58.74103468 88.54272811 58.37292239 89.44621644 57.5625 92.1328125 C53.85552295 92.39541623 50.15093642 92.55438088 46.4375 92.6953125 C45.39078125 92.77072266 44.3440625 92.84613281 43.265625 92.92382812 C35.66569905 93.14028171 35.66569905 93.14028171 32.63525391 90.37280273 C31.04519574 88.03002302 29.78584886 85.68474721 28.5625 83.1328125 C27.78713285 81.74425785 27.00868976 80.35741441 26.2265625 78.97265625 C25.54194355 77.67446372 24.86216644 76.37370506 24.1875 75.0703125 C23.83300781 74.39548828 23.47851562 73.72066406 23.11328125 73.02539062 C22.25858657 71.39685076 21.40986711 69.76517706 20.5625 68.1328125 C19.0775 69.1228125 19.0775 69.1228125 17.5625 70.1328125 C17.07100977 72.33655173 17.07100977 72.33655173 17.0859375 74.88671875 C17.03953125 76.29147461 17.03953125 76.29147461 16.9921875 77.72460938 C16.97414063 78.70494141 16.95609375 79.68527344 16.9375 80.6953125 C16.88671 82.6342206 16.83222593 84.57303668 16.7734375 86.51171875 C16.74709229 87.80444702 16.74709229 87.80444702 16.72021484 89.12329102 C16.5625 91.1328125 16.5625 91.1328125 15.5625 92.1328125 C14.08597336 92.23162047 12.60482764 92.26360495 11.125 92.265625 C9.78308594 92.26755859 9.78308594 92.26755859 8.4140625 92.26953125 C7.00253906 92.26373047 7.00253906 92.26373047 5.5625 92.2578125 C4.15097656 92.26361328 4.15097656 92.26361328 2.7109375 92.26953125 C1.81632813 92.26824219 0.92171875 92.26695312 0 92.265625 C-0.82628906 92.26449707 -1.65257812 92.26336914 -2.50390625 92.26220703 C-4.4375 92.1328125 -4.4375 92.1328125 -5.4375 91.1328125 C-5.53801875 88.33828979 -5.57365894 85.56844895 -5.56689453 82.7734375 C-5.56864685 81.89707642 -5.57039917 81.02071533 -5.57220459 80.11779785 C-5.57662432 77.20611623 -5.57368469 74.2944948 -5.5703125 71.3828125 C-5.5709855 69.36881498 -5.5719555 67.35481755 -5.57321167 65.34082031 C-5.57468881 61.11392445 -5.57253358 56.88704967 -5.56787109 52.66015625 C-5.5621738 47.22900718 -5.56545272 41.79790751 -5.57144356 36.36676025 C-5.57504874 32.20621363 -5.57391078 28.04567881 -5.57131577 23.88513184 C-5.57064638 21.88195795 -5.57147533 19.87878301 -5.57379532 17.87561035 C-5.57632115 15.08110698 -5.57248224 12.28668479 -5.56689453 9.4921875 C-5.56891876 8.65578735 -5.57094299 7.81938721 -5.57302856 6.9576416 C-5.54714652 0.00757216 -5.54714652 0.00757216 0 0 Z " fill="#000000" transform="translate(948.4375,297.8671875)"/>
<path d="M0 0 C5.42052741 3.21556711 10.31765151 8.60802082 12.625 14.5 C13.07233527 17.09564911 13.44889989 19.63882034 13.75 22.25 C13.83636719 22.94738281 13.92273438 23.64476562 14.01171875 24.36328125 C14.22271846 26.07472332 14.42475501 27.78726629 14.625 29.5 C16.605 30.16 18.585 30.82 20.625 31.5 C20.72652782 37.81699883 20.79651879 44.13378679 20.84472656 50.45141602 C20.86482586 52.5999335 20.89210993 54.7483964 20.92675781 56.89672852 C20.97534913 59.98727905 20.99798579 63.07710555 21.015625 66.16796875 C21.03627014 67.12648239 21.05691528 68.08499603 21.07818604 69.07255554 C21.07950631 73.00796525 20.85416438 75.93398892 19.36816406 79.60424805 C14.75630105 82.79142465 9.81021505 82.21135596 4.34375 82.1640625 C3.13811401 82.16884613 1.93247803 82.17362976 0.69030762 82.17855835 C-1.85833033 82.18196033 -4.40701174 82.17273736 -6.95556641 82.15185547 C-10.86068863 82.12509806 -14.76293612 82.15159739 -18.66796875 82.18359375 C-21.14323552 82.18028971 -23.61850051 82.17388361 -26.09375 82.1640625 C-27.84854675 82.17924423 -27.84854675 82.17924423 -29.63879395 82.19473267 C-37.53524923 82.08033684 -37.53524923 82.08033684 -41.11816406 79.60424805 C-42.94985261 75.08017659 -42.86978812 71.00405898 -42.765625 66.16796875 C-42.75996521 65.17622147 -42.75430542 64.18447418 -42.74847412 63.16267395 C-42.72613344 60.00378586 -42.67594038 56.84604364 -42.625 53.6875 C-42.60493206 51.54233412 -42.5866818 49.39715041 -42.5703125 47.25195312 C-42.52627645 42.00091297 -42.4593875 36.75053836 -42.375 31.5 C-40.395 30.84 -38.415 30.18 -36.375 29.5 C-36.28863281 28.51 -36.20226562 27.52 -36.11328125 26.5 C-35.01999126 15.63998614 -32.6899151 8.87910285 -24.21875 1.7265625 C-17.36986983 -2.82968405 -7.51805125 -3.32500897 0 0 Z M-21.6875 12.4375 C-24.87397426 16.33207965 -25.63651606 19.14767947 -25.5625 24.1875 C-25.55605469 25.16074219 -25.54960937 26.13398438 -25.54296875 27.13671875 C-25.63750771 29.45589122 -25.63750771 29.45589122 -24.375 30.5 C-22.38742972 30.59983058 -20.3963248 30.63080753 -18.40625 30.6328125 C-16.59060547 30.63474609 -16.59060547 30.63474609 -14.73828125 30.63671875 C-12.82595703 30.63091797 -12.82595703 30.63091797 -10.875 30.625 C-9.60011719 30.62886719 -8.32523437 30.63273437 -7.01171875 30.63671875 C-5.80128906 30.63542969 -4.59085937 30.63414062 -3.34375 30.6328125 C-2.22419922 30.63168457 -1.10464844 30.63055664 0.04882812 30.62939453 C2.55641802 30.79216368 2.55641802 30.79216368 3.625 29.5 C4.37654455 22.37880736 4.04150547 17.22952061 -0.375 11.5 C-7.36611416 5.83152906 -14.99159511 6.82741753 -21.6875 12.4375 Z M-16.25 44.625 C-17.83617551 47.26862586 -18.18725297 49.43346518 -18.375 52.5 C-18.05015625 53.10585937 -17.7253125 53.71171875 -17.390625 54.3359375 C-16.09535256 57.09586415 -16.21132 59.15614706 -16.3125 62.1875 C-16.36642463 63.9576347 -16.39548903 65.72916265 -16.375 67.5 C-15.37030377 68.7245178 -15.37030377 68.7245178 -13.34375 68.6328125 C-12.5290625 68.63023437 -11.714375 68.62765625 -10.875 68.625 C-10.0603125 68.62757813 -9.245625 68.63015625 -8.40625 68.6328125 C-6.37969623 68.7245178 -6.37969623 68.7245178 -5.375 67.5 C-5.34317021 64.74899679 -5.44338482 62.01119094 -5.53515625 59.26171875 C-5.36943034 56.4039574 -4.70319286 54.97718509 -3.375 52.5 C-3.56274703 49.43346518 -3.91382449 47.26862586 -5.5 44.625 C-8.9183974 42.57396156 -12.8316026 42.57396156 -16.25 44.625 Z " fill="#000000" transform="translate(322.375,200.5)"/>
<path d="M0 0 C0.62132812 0.43441406 1.24265625 0.86882812 1.8828125 1.31640625 C2.93855469 2.04537109 2.93855469 2.04537109 4.015625 2.7890625 C11.83503367 8.89166373 15.15466326 16.9245594 16.609375 26.55859375 C17.03030587 30.80398224 17.2594276 35.05977978 16.8828125 39.31640625 C14.70498569 41.49423306 9.63178172 40.57730541 6.59765625 40.6328125 C5.66683731 40.6535936 4.73601837 40.67437469 3.7769928 40.69578552 C0.79151068 40.76138556 -2.19406234 40.82021427 -5.1796875 40.87890625 C-7.19857726 40.92208155 -9.2174577 40.9656955 -11.23632812 41.00976562 C-16.19652047 41.11707754 -21.15680459 41.21831513 -26.1171875 41.31640625 C-24.98823381 46.11942522 -24.98823381 46.11942522 -22.4921875 50.25390625 C-18.34110938 52.11096751 -14.12429419 51.91311364 -9.8046875 50.62890625 C-7.88277925 49.36937412 -7.88277925 49.36937412 -7.1484375 46.75390625 C-5.1171875 44.31640625 -5.1171875 44.31640625 -3.0012207 43.90893555 C-0.29569151 43.82326348 2.36622219 43.88193132 5.0703125 44.00390625 C6.48086914 44.03774414 6.48086914 44.03774414 7.91992188 44.07226562 C10.24248723 44.13121398 12.56185026 44.2134284 14.8828125 44.31640625 C16.38248869 49.57464588 14.97531987 52.22840361 12.46484375 56.8828125 C8.18926928 63.4598073 1.48959662 67.41794661 -5.84765625 69.90234375 C-16.65365923 71.87383483 -27.49660975 71.07503369 -36.875 65.21875 C-43.72955386 60.13811334 -47.11682269 52.31823028 -48.7421875 44.19140625 C-50.07200003 30.45001009 -49.10568723 17.64034849 -40.5859375 6.2734375 C-31.25960822 -4.04271446 -12.27710781 -6.90888224 0 0 Z M-25.1171875 20.31640625 C-25.4471875 21.63640625 -25.7771875 22.95640625 -26.1171875 24.31640625 C-19.8471875 24.31640625 -13.5771875 24.31640625 -7.1171875 24.31640625 C-8.12888929 18.71497341 -8.12888929 18.71497341 -12.1171875 15.31640625 C-18.42604261 14.41514123 -21.12206695 14.98957884 -25.1171875 20.31640625 Z " fill="#000000" transform="translate(1093.1171875,202.68359375)"/>
<path d="M0 0 C0.92619141 0.58974609 0.92619141 0.58974609 1.87109375 1.19140625 C2.75087891 1.73474609 2.75087891 1.73474609 3.6484375 2.2890625 C7.8521283 5.32106442 10.35481724 9.3133281 11.87109375 14.19140625 C12.21103923 17.23176371 12.27633643 20.15540782 11.87109375 23.19140625 C9.81186973 25.25063027 5.65401251 24.60568204 2.80859375 24.75390625 C1.67067383 24.81868164 1.67067383 24.81868164 0.50976562 24.88476562 C-1.36956063 24.99114258 -3.24920869 25.09180559 -5.12890625 25.19140625 C-4.41605469 25.38734375 -3.70320312 25.58328125 -2.96875 25.78515625 C4.24633988 28.03805107 8.70037751 30.8041773 12.87109375 37.19140625 C14.88688185 43.23877054 14.99187147 50.61581533 12.37109375 56.50390625 C8.35306656 63.27110995 2.79215713 67.29567519 -4.62475586 69.60913086 C-8.93906645 70.61231217 -13.15563385 70.62448518 -17.56640625 70.56640625 C-18.44361328 70.57800781 -19.32082031 70.58960938 -20.22460938 70.6015625 C-29.29432327 70.5614606 -38.44308451 68.71719502 -45.12890625 62.19140625 C-49.10185645 56.85928888 -50.19256936 51.83783459 -50.12890625 45.19140625 C-47.80588148 42.86838148 -42.43126462 43.81667963 -39.31640625 43.75390625 C-38.40052734 43.70814453 -37.48464844 43.66238281 -36.54101562 43.61523438 C-33.93699609 43.57161278 -31.66733916 43.60098051 -29.12890625 44.19140625 C-26.6171875 47.15625 -26.6171875 47.15625 -25.12890625 50.19140625 C-22.67919001 51.41626437 -20.98656164 51.35863433 -18.25390625 51.37890625 C-17.39023437 51.39308594 -16.5265625 51.40726563 -15.63671875 51.421875 C-12.96815116 51.17663281 -11.37685986 50.62787885 -9.12890625 49.19140625 C-8.63390625 48.20140625 -8.63390625 48.20140625 -8.12890625 47.19140625 C-9.38703125 46.82015625 -10.64515625 46.44890625 -11.94140625 46.06640625 C-14.0040804 45.44198122 -16.06654319 44.81685796 -18.12890625 44.19140625 C-18.86866699 43.97145996 -19.60842773 43.75151367 -20.37060547 43.52490234 C-22.87646542 42.77780433 -25.37777012 42.01665557 -27.87890625 41.25390625 C-29.10250854 40.89304932 -29.10250854 40.89304932 -30.35083008 40.52490234 C-37.92142655 38.19155765 -43.12629333 35.30716254 -47.12890625 28.19140625 C-49.72255141 21.49115626 -47.90098083 14.50888094 -45.12890625 8.19140625 C-36.47145327 -5.24257252 -13.48387304 -6.89816678 0 0 Z M-26.12890625 19.19140625 C-20.14480088 21.51795716 -14.54881751 23.62074747 -8.12890625 24.19140625 C-10.05282274 18.87729131 -10.05282274 18.87729131 -14.12890625 15.19140625 C-20.1039539 14.62235409 -22.03694662 14.55934457 -26.12890625 19.19140625 Z " fill="#000000" transform="translate(714.12890625,202.80859375)"/>
<path d="M0 0 C10.05516997 10.51222315 11.33173778 21.8424554 11.05859375 35.74609375 C10.61772131 45.84225549 7.1445301 53.02533002 -0.25 59.875 C-9.0137868 67.49230471 -19.01088271 67.63055189 -30.10595703 67.0703125 C-38.0755158 66.34432218 -44.98341739 62.87037864 -50.25 56.875 C-57.96244631 46.59173826 -59.30752442 34.8459445 -57.9765625 22.296875 C-56.44694826 13.11918959 -52.89099862 5.15092986 -45.44140625 -0.65234375 C-31.99424747 -9.68902621 -13.30144385 -8.6970979 0 0 Z M-31.25 14.875 C-35.71026156 20.75121761 -36.93945959 26.62290658 -36.25 33.875 C-35.31329876 38.63788764 -34.0620192 42.5775885 -30.375 45.875 C-26.57980014 48.33759782 -26.57980014 48.33759782 -22.25 48.875 C-17.41270451 47.36334516 -14.64350925 44.82647734 -12.1640625 40.5234375 C-9.89302864 33.94326248 -9.95800584 25.96486772 -12.63671875 19.55859375 C-15.10766251 15.44833137 -17.61676994 13.39624364 -22.1875 11.9375 C-26.15934469 11.85644195 -27.98722827 12.60524576 -31.25 14.875 Z " fill="#000000" transform="translate(857.25,326.125)"/>
<path d="M0 0 C0.89460937 -0.00128906 1.78921875 -0.00257813 2.7109375 -0.00390625 C3.65195312 -0.00003906 4.59296875 0.00382813 5.5625 0.0078125 C6.97402344 0.00201172 6.97402344 0.00201172 8.4140625 -0.00390625 C9.75597656 -0.00197266 9.75597656 -0.00197266 11.125 0 C11.95128906 0.00112793 12.77757812 0.00225586 13.62890625 0.00341797 C15.5625 0.1328125 15.5625 0.1328125 16.5625 1.1328125 C16.67937644 2.51767118 16.72969427 3.90824795 16.75195312 5.29785156 C16.76867065 6.18257141 16.78538818 7.06729126 16.8026123 7.9788208 C16.81618774 8.94229431 16.82976318 9.90576782 16.84375 10.8984375 C16.87136414 12.37676056 16.87136414 12.37676056 16.89953613 13.88494873 C16.95848709 17.05084058 17.01117981 20.2167883 17.0625 23.3828125 C17.13024034 27.53396605 17.20401213 31.68495111 17.28125 35.8359375 C17.29482544 36.79131409 17.30840088 37.74669067 17.3223877 38.73101807 C17.33910522 39.62834656 17.35582275 40.52567505 17.37304688 41.45019531 C17.38557495 42.23549622 17.39810303 43.02079712 17.41101074 43.82989502 C17.5755939 46.33186409 18.02157533 48.68688345 18.5625 51.1328125 C24.00252201 52.0273939 28.44342325 52.69235088 33.5625 50.1328125 C34.50127157 47.31649778 34.70662738 45.50695594 34.75195312 42.58544922 C34.77702942 41.20919876 34.77702942 41.20919876 34.8026123 39.80514526 C34.81618774 38.81757233 34.82976318 37.82999939 34.84375 36.8125 C34.86215942 35.79809845 34.88056885 34.7836969 34.89953613 33.73855591 C34.97832811 29.39140501 35.04614803 25.04409922 35.11474609 20.69677734 C35.16632284 17.52693661 35.22361673 14.35723544 35.28125 11.1875 C35.29482544 10.1958786 35.30840088 9.2042572 35.3223877 8.18258667 C35.34746399 6.81579269 35.34746399 6.81579269 35.37304688 5.42138672 C35.39183899 4.21251297 35.39183899 4.21251297 35.41101074 2.97921753 C35.5625 1.1328125 35.5625 1.1328125 36.5625 0.1328125 C38.03902664 0.03400453 39.52017236 0.00202005 41 0 C41.89460937 -0.00128906 42.78921875 -0.00257813 43.7109375 -0.00390625 C44.65195312 -0.00003906 45.59296875 0.00382813 46.5625 0.0078125 C47.97402344 0.00201172 47.97402344 0.00201172 49.4140625 -0.00390625 C50.75597656 -0.00197266 50.75597656 -0.00197266 52.125 0 C52.95128906 0.00112793 53.77757812 0.00225586 54.62890625 0.00341797 C56.5625 0.1328125 56.5625 0.1328125 57.5625 1.1328125 C57.66193972 3.21356659 57.69049596 5.29773098 57.69189453 7.38085938 C57.69364685 8.03288834 57.69539917 8.6849173 57.69720459 9.35670471 C57.70162204 11.52168403 57.69868551 13.68658229 57.6953125 15.8515625 C57.69598557 17.34989437 57.69695562 18.84822613 57.69821167 20.34655762 C57.6996885 23.49065183 57.69753458 26.63471767 57.69287109 29.77880859 C57.6871738 33.81767789 57.69045289 37.85648074 57.69644356 41.8953476 C57.70004958 44.9904633 57.69891039 48.08556315 57.69631577 51.18067932 C57.69564661 52.67029325 57.69647452 54.1599086 57.69879532 55.64952087 C57.70132253 57.72797485 57.69748033 59.80631981 57.69189453 61.88476562 C57.69109894 63.06977661 57.69030334 64.2547876 57.68948364 65.47570801 C57.5625 68.1328125 57.5625 68.1328125 56.5625 69.1328125 C55.10899413 69.21957505 53.65137541 69.23984131 52.1953125 69.23046875 C51.30972656 69.22724609 50.42414062 69.22402344 49.51171875 69.22070312 C48.11373047 69.20813477 48.11373047 69.20813477 46.6875 69.1953125 C45.76324219 69.19080078 44.83898437 69.18628906 43.88671875 69.18164062 C42.16551449 69.17289721 40.44431862 69.16210972 38.72314453 69.14868164 C35.2939978 69.12349582 33.58187817 69.12387055 30.37109375 70.60546875 C26.49977452 72.33023345 22.82900421 72.63375777 18.625 72.5703125 C17.92205811 72.56273926 17.21911621 72.55516602 16.49487305 72.54736328 C9.04818081 72.31063122 5.08088599 70.48330609 -0.25 65.5078125 C-5.74186174 58.11430937 -5.86837571 48.86329438 -5.765625 40.03515625 C-5.76375183 38.91967911 -5.76187866 37.80420197 -5.75994873 36.65492249 C-5.75326954 34.31785046 -5.73943848 31.98078882 -5.71875 29.64379883 C-5.68731832 26.04953744 -5.67774618 22.45571396 -5.671875 18.86132812 C-5.66271514 16.58593209 -5.65234263 14.31054055 -5.640625 12.03515625 C-5.63637512 10.95612534 -5.63212524 9.87709442 -5.62774658 8.7653656 C-5.61813904 7.7766597 -5.60853149 6.7879538 -5.59863281 5.76928711 C-5.59180481 4.89566025 -5.58497681 4.02203339 -5.57794189 3.12193298 C-5.31155574 -0.6509736 -3.29240871 0.00449432 0 0 Z " fill="#000000" transform="translate(937.4375,200.8671875)"/>
<path d="M0 0 C0.56589844 0.39058594 1.13179687 0.78117187 1.71484375 1.18359375 C2.78734375 1.88484375 3.85984375 2.58609375 4.96484375 3.30859375 C10.75439538 9.36130682 13.17558752 15.97352321 13.76953125 24.25 C13.71484375 26.18359375 13.71484375 26.18359375 12.71484375 27.18359375 C9.60006145 27.51548989 6.47004401 27.50840103 3.33984375 27.55859375 C2.46328125 27.59597656 1.58671875 27.63335937 0.68359375 27.671875 C-1.73778912 27.70519678 -3.91348111 27.67730822 -6.28515625 27.18359375 C-8.30859375 24.83203125 -8.30859375 24.83203125 -9.28515625 22.18359375 C-10.4226482 19.39851059 -10.4226482 19.39851059 -12.28515625 17.18359375 C-15.98937733 16.08604676 -18.32609817 15.90023568 -22.03515625 16.99609375 C-26.48048392 21.3179401 -27.41629648 27.7132151 -27.66015625 33.74609375 C-27.46299869 39.03179407 -26.32885815 44.78922986 -22.828125 48.890625 C-20.66935714 50.69961781 -19.08083034 50.98390274 -16.28515625 51.18359375 C-13.61174297 50.89869952 -13.61174297 50.89869952 -11.28515625 49.18359375 C-10.03323762 47.16545067 -9.04042223 45.13302853 -8.08203125 42.9609375 C-7.28515625 41.18359375 -7.28515625 41.18359375 -6.28515625 40.18359375 C-4.8816689 40.08499244 -3.47335148 40.05280438 -2.06640625 40.05078125 C-0.79216797 40.04884766 -0.79216797 40.04884766 0.5078125 40.046875 C1.84779297 40.05267578 1.84779297 40.05267578 3.21484375 40.05859375 C4.10816406 40.05472656 5.00148438 40.05085938 5.921875 40.046875 C6.77136719 40.04816406 7.62085938 40.04945313 8.49609375 40.05078125 C9.28048828 40.05190918 10.06488281 40.05303711 10.87304688 40.05419922 C12.71484375 40.18359375 12.71484375 40.18359375 13.71484375 41.18359375 C13.9461081 49.50911032 11.46652309 56.0551432 5.88671875 62.1953125 C-0.95076007 68.61554359 -7.88384239 70.74534785 -17.16015625 70.62109375 C-17.9480957 70.61424561 -18.73603516 70.60739746 -19.54785156 70.6003418 C-28.64549093 70.3501286 -35.87332354 67.74453885 -42.28515625 61.18359375 C-50.26481959 50.44772357 -51.34556007 38.27756434 -49.9765625 25.24609375 C-48.36309042 14.96556367 -44.53300851 7.7125416 -36.28515625 1.18359375 C-26.99654339 -5.04380018 -9.74256021 -5.57544535 0 0 Z " fill="#000000" transform="translate(923.28515625,322.81640625)"/>
<path d="M0 0 C1.40958984 -0.00193359 1.40958984 -0.00193359 2.84765625 -0.00390625 C3.83636719 -0.00003906 4.82507813 0.00382812 5.84375 0.0078125 C7.32681641 0.00201172 7.32681641 0.00201172 8.83984375 -0.00390625 C9.77957031 -0.00261719 10.71929688 -0.00132812 11.6875 0 C12.55568359 0.00112793 13.42386719 0.00225586 14.31835938 0.00341797 C16.34375 0.1328125 16.34375 0.1328125 17.34375 1.1328125 C17.43811529 3.37211136 17.46117327 5.61443 17.45727539 7.85571289 C17.45742142 8.558116 17.45756744 9.2605191 17.4577179 9.98420715 C17.45701872 12.31632528 17.44922617 14.6483645 17.44140625 16.98046875 C17.43954208 18.59329688 17.43811818 20.20612557 17.43711853 21.81895447 C17.43329323 26.07196607 17.42346285 30.32494374 17.41241455 34.57794189 C17.40220069 38.9145868 17.39762096 43.25123717 17.39257812 47.58789062 C17.38184059 56.10288019 17.36476403 64.61784213 17.34375 73.1328125 C19.19891235 73.12495728 19.19891235 73.12495728 21.09155273 73.11694336 C25.66299725 73.09889689 30.23443859 73.08738179 34.8059082 73.07788086 C36.78768441 73.07283983 38.76945689 73.06600712 40.7512207 73.05737305 C43.59327109 73.04529735 46.43527247 73.03958205 49.27734375 73.03515625 C50.16900742 73.02999496 51.06067108 73.02483368 51.97935486 73.01951599 C54.10115601 73.01932073 56.2228578 73.0707122 58.34375 73.1328125 C60.2292753 75.0183378 59.47621689 77.71050081 59.48046875 80.21484375 C59.47660156 81.01277344 59.47273437 81.81070313 59.46875 82.6328125 C59.47261719 83.43074219 59.47648438 84.22867188 59.48046875 85.05078125 C59.47035767 91.00620483 59.47035767 91.00620483 58.34375 92.1328125 C56.38550302 92.23207023 54.42365103 92.26080664 52.46289062 92.26220703 C50.5758844 92.26693527 50.5758844 92.26693527 48.65075684 92.27175903 C47.26717087 92.26996925 45.88358522 92.2679183 44.5 92.265625 C43.09134911 92.26629809 41.68269834 92.26726815 40.27404785 92.26852417 C37.31826677 92.27000092 34.36251586 92.26784733 31.40673828 92.26318359 C27.61000416 92.25748631 23.81334072 92.26076543 20.01660919 92.26675606 C17.10678572 92.27036229 14.19697912 92.2692228 11.28715515 92.26662827 C9.886856 92.26595917 8.48655533 92.26678682 7.08625793 92.26910782 C5.13237536 92.27163533 3.17848745 92.26710283 1.22460938 92.26220703 C0.11065796 92.26141144 -1.00329346 92.26061584 -2.15100098 92.25979614 C-4.65625 92.1328125 -4.65625 92.1328125 -5.65625 91.1328125 C-5.75676875 88.33828979 -5.79240894 85.56844895 -5.78564453 82.7734375 C-5.78739685 81.89707642 -5.78914917 81.02071533 -5.79095459 80.11779785 C-5.79537432 77.20611623 -5.79243469 74.2944948 -5.7890625 71.3828125 C-5.7897355 69.36881498 -5.7907055 67.35481755 -5.79196167 65.34082031 C-5.79343881 61.11392445 -5.79128358 56.88704967 -5.78662109 52.66015625 C-5.7809238 47.22900718 -5.78420272 41.79790751 -5.79019356 36.36676025 C-5.79379874 32.20621363 -5.79266078 28.04567881 -5.79006577 23.88513184 C-5.78939638 21.88195795 -5.79022533 19.87878301 -5.79254532 17.87561035 C-5.79507115 15.08110698 -5.79123224 12.28668479 -5.78564453 9.4921875 C-5.78766876 8.65578735 -5.78969299 7.81938721 -5.79177856 6.9576416 C-5.76589621 0.00749096 -5.76589621 0.00749096 0 0 Z " fill="#000000" transform="translate(735.65625,297.8671875)"/>
<path d="M0 0 C0.89460937 -0.00128906 1.78921875 -0.00257813 2.7109375 -0.00390625 C3.65195312 -0.00003906 4.59296875 0.00382813 5.5625 0.0078125 C6.97402344 0.00201172 6.97402344 0.00201172 8.4140625 -0.00390625 C9.75597656 -0.00197266 9.75597656 -0.00197266 11.125 0 C11.95128906 0.00112793 12.77757812 0.00225586 13.62890625 0.00341797 C15.5625 0.1328125 15.5625 0.1328125 16.5625 1.1328125 C16.63569621 3.82936104 16.65492537 6.49972708 16.625 9.1953125 C16.62048828 9.95392578 16.61597656 10.71253906 16.61132812 11.49414062 C16.5995068 13.37373121 16.58157078 15.25328149 16.5625 17.1328125 C17.861875 17.1121875 19.16125 17.0915625 20.5 17.0703125 C21.85415633 17.04881796 23.21006083 17.06133051 24.5625 17.1328125 C25.5625 18.1328125 25.5625 18.1328125 25.6953125 21.2578125 C25.69273438 22.5365625 25.69015625 23.8153125 25.6875 25.1328125 C25.69136719 27.0509375 25.69136719 27.0509375 25.6953125 29.0078125 C25.5625 32.1328125 25.5625 32.1328125 24.5625 33.1328125 C21.9225 33.1328125 19.2825 33.1328125 16.5625 33.1328125 C17.0575 50.9528125 17.0575 50.9528125 17.5625 69.1328125 C19.8725 69.4628125 22.1825 69.7928125 24.5625 70.1328125 C26.55034899 72.12066149 25.79247787 75.85981657 25.8125 78.5703125 C25.833125 79.26447266 25.85375 79.95863281 25.875 80.67382812 C25.890625 82.69140625 25.890625 82.69140625 25.5625 86.1328125 C21.87391494 88.5918692 19.01767814 88.46465828 14.75 88.4453125 C14.05068359 88.46142578 13.35136719 88.47753906 12.63085938 88.49414062 C7.1141736 88.49930123 3.07031443 87.36661395 -1.08203125 83.66796875 C-4.55219708 79.29254227 -5.56754948 76.30923851 -5.55102539 70.82324219 C-5.55094986 69.98267273 -5.55087433 69.14210327 -5.55079651 68.27606201 C-5.54563522 67.37800842 -5.54047394 66.47995483 -5.53515625 65.5546875 C-5.5337413 64.6281134 -5.53232635 63.70153931 -5.53086853 62.74688721 C-5.52527824 59.79216258 -5.5127275 56.83751417 -5.5 53.8828125 C-5.49498375 51.87760526 -5.49042106 49.87239683 -5.48632812 47.8671875 C-5.47531199 42.95569987 -5.458054 38.0442691 -5.4375 33.1328125 C-7.1390625 33.16375 -7.1390625 33.16375 -8.875 33.1953125 C-12.4375 33.1328125 -12.4375 33.1328125 -13.4375 32.1328125 C-13.53659302 29.80121195 -13.56720504 27.46651308 -13.5625 25.1328125 C-13.56507813 23.8540625 -13.56765625 22.5753125 -13.5703125 21.2578125 C-13.4375 18.1328125 -13.4375 18.1328125 -12.4375 17.1328125 C-10.10452567 17.09188313 -7.77044775 17.09039527 -5.4375 17.1328125 C-5.44910156 15.98941406 -5.46070313 14.84601563 -5.47265625 13.66796875 C-5.48203288 12.17708496 -5.49113321 10.68619941 -5.5 9.1953125 C-5.50837891 8.44056641 -5.51675781 7.68582031 -5.52539062 6.90820312 C-5.53402441 4.98286937 -5.48974333 3.05745669 -5.4375 1.1328125 C-3.84812444 -0.45656306 -2.19850154 0.00300107 0 0 Z " fill="#000000" transform="translate(1014.4375,184.8671875)"/>
<path d="M0 0 C0.89460937 -0.00128906 1.78921875 -0.00257813 2.7109375 -0.00390625 C3.65195312 -0.00003906 4.59296875 0.00382813 5.5625 0.0078125 C6.97402344 0.00201172 6.97402344 0.00201172 8.4140625 -0.00390625 C9.75597656 -0.00197266 9.75597656 -0.00197266 11.125 0 C11.95128906 0.00112793 12.77757812 0.00225586 13.62890625 0.00341797 C15.5625 0.1328125 15.5625 0.1328125 16.5625 1.1328125 C16.63569621 3.82936104 16.65492537 6.49972708 16.625 9.1953125 C16.62048828 9.95392578 16.61597656 10.71253906 16.61132812 11.49414062 C16.5995068 13.37373121 16.58157078 15.25328149 16.5625 17.1328125 C17.861875 17.1121875 19.16125 17.0915625 20.5 17.0703125 C21.85415633 17.04881796 23.21006083 17.06133051 24.5625 17.1328125 C25.5625 18.1328125 25.5625 18.1328125 25.6953125 21.2578125 C25.69273437 22.5365625 25.69015625 23.8153125 25.6875 25.1328125 C25.69136719 27.0509375 25.69136719 27.0509375 25.6953125 29.0078125 C25.5625 32.1328125 25.5625 32.1328125 24.5625 33.1328125 C21.9225 33.1328125 19.2825 33.1328125 16.5625 33.1328125 C17.0575 50.9528125 17.0575 50.9528125 17.5625 69.1328125 C19.8725 69.4628125 22.1825 69.7928125 24.5625 70.1328125 C26.55034899 72.12066149 25.79247787 75.85981657 25.8125 78.5703125 C25.833125 79.26447266 25.85375 79.95863281 25.875 80.67382812 C25.890625 82.69140625 25.890625 82.69140625 25.5625 86.1328125 C21.87391494 88.5918692 19.01767814 88.46465828 14.75 88.4453125 C14.05068359 88.46142578 13.35136719 88.47753906 12.63085938 88.49414062 C7.1141736 88.49930123 3.07031443 87.36661395 -1.08203125 83.66796875 C-4.55219708 79.29254227 -5.56754948 76.30923851 -5.55102539 70.82324219 C-5.55094986 69.98267273 -5.55087433 69.14210327 -5.55079651 68.27606201 C-5.54563522 67.37800842 -5.54047394 66.47995483 -5.53515625 65.5546875 C-5.5337413 64.6281134 -5.53232635 63.70153931 -5.53086853 62.74688721 C-5.52527824 59.79216258 -5.5127275 56.83751417 -5.5 53.8828125 C-5.49498375 51.87760526 -5.49042106 49.87239683 -5.48632812 47.8671875 C-5.47531199 42.95569987 -5.458054 38.0442691 -5.4375 33.1328125 C-7.1390625 33.16375 -7.1390625 33.16375 -8.875 33.1953125 C-12.4375 33.1328125 -12.4375 33.1328125 -13.4375 32.1328125 C-13.53659302 29.80121195 -13.56720504 27.46651308 -13.5625 25.1328125 C-13.56507813 23.8540625 -13.56765625 22.5753125 -13.5703125 21.2578125 C-13.4375 18.1328125 -13.4375 18.1328125 -12.4375 17.1328125 C-10.10452567 17.09188313 -7.77044775 17.09039527 -5.4375 17.1328125 C-5.44910156 15.98941406 -5.46070313 14.84601563 -5.47265625 13.66796875 C-5.48203288 12.17708496 -5.49113321 10.68619941 -5.5 9.1953125 C-5.50837891 8.44056641 -5.51675781 7.68582031 -5.52539062 6.90820312 C-5.53402441 4.98286937 -5.48974333 3.05745669 -5.4375 1.1328125 C-3.84812444 -0.45656306 -2.19850154 0.00300107 0 0 Z " fill="#000000" transform="translate(743.4375,184.8671875)"/>
<path d="M0 0 C1.33417969 -0.00386719 1.33417969 -0.00386719 2.6953125 -0.0078125 C4.875 0.125 4.875 0.125 5.875 1.125 C5.97380797 2.60152664 6.00579245 4.08267236 6.0078125 5.5625 C6.00974609 6.90441406 6.00974609 6.90441406 6.01171875 8.2734375 C6.00785156 9.21445313 6.00398437 10.15546875 6 11.125 C6.00580078 12.53652344 6.00580078 12.53652344 6.01171875 13.9765625 C6.01042969 14.87117187 6.00914062 15.76578125 6.0078125 16.6875 C6.00668457 17.51378906 6.00555664 18.34007812 6.00439453 19.19140625 C5.875 21.125 5.875 21.125 4.875 22.125 C3.4993815 22.11909606 2.12385629 22.0698571 0.75 22 C-4.04501488 21.96940979 -7.01072713 22.60605743 -11.125 25.125 C-13.36085562 30.03285034 -13.44809502 34.70111116 -13.50390625 39.98828125 C-13.52090073 40.8208696 -13.5378952 41.65345795 -13.55540466 42.51127625 C-13.60826108 45.15327517 -13.64873912 47.79525967 -13.6875 50.4375 C-13.7314137 53.09751818 -13.77802211 55.75741496 -13.83030701 58.4172821 C-13.86230186 60.06872884 -13.88918018 61.72028391 -13.91053772 63.37190247 C-14.01318877 69.01318877 -14.01318877 69.01318877 -15.125 70.125 C-16.60152664 70.22380797 -18.08267236 70.25579245 -19.5625 70.2578125 C-20.90441406 70.25974609 -20.90441406 70.25974609 -22.2734375 70.26171875 C-23.68496094 70.25591797 -23.68496094 70.25591797 -25.125 70.25 C-26.53652344 70.25580078 -26.53652344 70.25580078 -27.9765625 70.26171875 C-28.87117187 70.26042969 -29.76578125 70.25914062 -30.6875 70.2578125 C-31.51378906 70.25668457 -32.34007812 70.25555664 -33.19140625 70.25439453 C-35.125 70.125 -35.125 70.125 -36.125 69.125 C-36.22443972 67.04424591 -36.25299596 64.96008152 -36.25439453 62.87695312 C-36.25614685 62.22492416 -36.25789917 61.5728952 -36.25970459 60.90110779 C-36.26412204 58.73612847 -36.26118551 56.57123021 -36.2578125 54.40625 C-36.25848557 52.90791813 -36.25945562 51.40958637 -36.26071167 49.91125488 C-36.2621885 46.76716067 -36.26003458 43.62309483 -36.25537109 40.47900391 C-36.2496738 36.44013461 -36.25295289 32.40133176 -36.25894356 28.3624649 C-36.26254958 25.2673492 -36.26141039 22.17224935 -36.25881577 19.07713318 C-36.25814661 17.58751925 -36.25897452 16.0979039 -36.26129532 14.60829163 C-36.26382253 12.52983765 -36.25998033 10.45149269 -36.25439453 8.37304688 C-36.25359894 7.18803589 -36.25280334 6.0030249 -36.25198364 4.78210449 C-36.125 2.125 -36.125 2.125 -35.125 1.125 C-33.6362814 1.03830568 -32.143555 1.01796506 -30.65234375 1.02734375 C-29.75322266 1.03056641 -28.85410156 1.03378906 -27.92773438 1.03710938 C-26.98220703 1.04548828 -26.03667969 1.05386719 -25.0625 1.0625 C-24.11310547 1.06701172 -23.16371094 1.07152344 -22.18554688 1.07617188 C-19.83196935 1.0879989 -17.47851523 1.10447975 -15.125 1.125 C-14.465 2.445 -13.805 3.765 -13.125 5.125 C-12.361875 4.485625 -11.59875 3.84625 -10.8125 3.1875 C-7.12375337 0.35660142 -4.52228335 -0.0131845 0 0 Z " fill="#000000" transform="translate(812.125,199.875)"/>
<path d="M0 0 C0.89460937 -0.00128906 1.78921875 -0.00257813 2.7109375 -0.00390625 C3.65195312 -0.00003906 4.59296875 0.00382813 5.5625 0.0078125 C6.97402344 0.00201172 6.97402344 0.00201172 8.4140625 -0.00390625 C9.75597656 -0.00197266 9.75597656 -0.00197266 11.125 0 C11.95128906 0.00112793 12.77757812 0.00225586 13.62890625 0.00341797 C15.5625 0.1328125 15.5625 0.1328125 16.5625 1.1328125 C16.66193972 3.21356659 16.69049596 5.29773098 16.69189453 7.38085938 C16.69364685 8.03288834 16.69539917 8.6849173 16.69720459 9.35670471 C16.70162204 11.52168403 16.69868551 13.68658229 16.6953125 15.8515625 C16.69598557 17.34989437 16.69695562 18.84822613 16.69821167 20.34655762 C16.6996885 23.49065183 16.69753458 26.63471767 16.69287109 29.77880859 C16.6871738 33.81767789 16.69045289 37.85648074 16.69644356 41.8953476 C16.70004958 44.9904633 16.69891039 48.08556315 16.69631577 51.18067932 C16.69564661 52.67029325 16.69647452 54.1599086 16.69879532 55.64952087 C16.70132253 57.72797485 16.69748033 59.80631981 16.69189453 61.88476562 C16.69109894 63.06977661 16.69030334 64.2547876 16.68948364 65.47570801 C16.5625 68.1328125 16.5625 68.1328125 15.5625 69.1328125 C14.08597336 69.23162047 12.60482764 69.26360495 11.125 69.265625 C9.78308594 69.26755859 9.78308594 69.26755859 8.4140625 69.26953125 C7.00253906 69.26373047 7.00253906 69.26373047 5.5625 69.2578125 C4.15097656 69.26361328 4.15097656 69.26361328 2.7109375 69.26953125 C1.81632813 69.26824219 0.92171875 69.26695312 0 69.265625 C-0.82628906 69.26449707 -1.65257812 69.26336914 -2.50390625 69.26220703 C-4.4375 69.1328125 -4.4375 69.1328125 -5.4375 68.1328125 C-5.53693972 66.05205841 -5.56549596 63.96789402 -5.56689453 61.88476562 C-5.56864685 61.23273666 -5.57039917 60.5807077 -5.57220459 59.90892029 C-5.57662204 57.74394097 -5.57368551 55.57904271 -5.5703125 53.4140625 C-5.57098557 51.91573063 -5.57195562 50.41739887 -5.57321167 48.91906738 C-5.5746885 45.77497317 -5.57253458 42.63090733 -5.56787109 39.48681641 C-5.5621738 35.44794711 -5.56545289 31.40914426 -5.57144356 27.3702774 C-5.57504958 24.2751617 -5.57391039 21.18006185 -5.57131577 18.08494568 C-5.57064661 16.59533175 -5.57147452 15.1057164 -5.57379532 13.61610413 C-5.57632253 11.53765015 -5.57248033 9.45930519 -5.56689453 7.38085938 C-5.56609894 6.19584839 -5.56530334 5.0108374 -5.56448364 3.78991699 C-5.35698025 -0.55204537 -3.91453243 0.00534355 0 0 Z " fill="#000000" transform="translate(829.4375,200.8671875)"/>
<path d="M0 0 C0.89460937 -0.00128906 1.78921875 -0.00257813 2.7109375 -0.00390625 C3.65195312 -0.00003906 4.59296875 0.00382813 5.5625 0.0078125 C6.97402344 0.00201172 6.97402344 0.00201172 8.4140625 -0.00390625 C9.75597656 -0.00197266 9.75597656 -0.00197266 11.125 0 C11.95128906 0.00112793 12.77757812 0.00225586 13.62890625 0.00341797 C15.5625 0.1328125 15.5625 0.1328125 16.5625 1.1328125 C16.66193972 3.21356659 16.69049596 5.29773098 16.69189453 7.38085938 C16.69364685 8.03288834 16.69539917 8.6849173 16.69720459 9.35670471 C16.70162204 11.52168403 16.69868551 13.68658229 16.6953125 15.8515625 C16.69598557 17.34989437 16.69695562 18.84822613 16.69821167 20.34655762 C16.6996885 23.49065183 16.69753458 26.63471767 16.69287109 29.77880859 C16.6871738 33.81767789 16.69045289 37.85648074 16.69644356 41.8953476 C16.70004958 44.9904633 16.69891039 48.08556315 16.69631577 51.18067932 C16.69564661 52.67029325 16.69647452 54.1599086 16.69879532 55.64952087 C16.70132253 57.72797485 16.69748033 59.80631981 16.69189453 61.88476562 C16.69109894 63.06977661 16.69030334 64.2547876 16.68948364 65.47570801 C16.5625 68.1328125 16.5625 68.1328125 15.5625 69.1328125 C14.08597336 69.23162047 12.60482764 69.26360495 11.125 69.265625 C9.78308594 69.26755859 9.78308594 69.26755859 8.4140625 69.26953125 C7.00253906 69.26373047 7.00253906 69.26373047 5.5625 69.2578125 C4.15097656 69.26361328 4.15097656 69.26361328 2.7109375 69.26953125 C1.81632813 69.26824219 0.92171875 69.26695312 0 69.265625 C-0.82628906 69.26449707 -1.65257812 69.26336914 -2.50390625 69.26220703 C-4.4375 69.1328125 -4.4375 69.1328125 -5.4375 68.1328125 C-5.53693972 66.05205841 -5.56549596 63.96789402 -5.56689453 61.88476562 C-5.56864685 61.23273666 -5.57039917 60.5807077 -5.57220459 59.90892029 C-5.57662204 57.74394097 -5.57368551 55.57904271 -5.5703125 53.4140625 C-5.57098557 51.91573063 -5.57195562 50.41739887 -5.57321167 48.91906738 C-5.5746885 45.77497317 -5.57253458 42.63090733 -5.56787109 39.48681641 C-5.5621738 35.44794711 -5.56545289 31.40914426 -5.57144356 27.3702774 C-5.57504958 24.2751617 -5.57391039 21.18006185 -5.57131577 18.08494568 C-5.57064661 16.59533175 -5.57147452 15.1057164 -5.57379532 13.61610413 C-5.57632253 11.53765015 -5.57248033 9.45930519 -5.56689453 7.38085938 C-5.56609894 6.19584839 -5.56530334 5.0108374 -5.56448364 3.78991699 C-5.35698025 -0.55204537 -3.91453243 0.00534355 0 0 Z " fill="#000000" transform="translate(640.4375,200.8671875)"/>
<path d="M0 0 C0.89460937 -0.00128906 1.78921875 -0.00257813 2.7109375 -0.00390625 C3.65195312 -0.00003906 4.59296875 0.00382813 5.5625 0.0078125 C6.97402344 0.00201172 6.97402344 0.00201172 8.4140625 -0.00390625 C9.75597656 -0.00197266 9.75597656 -0.00197266 11.125 0 C11.95128906 0.00112793 12.77757812 0.00225586 13.62890625 0.00341797 C15.5625 0.1328125 15.5625 0.1328125 16.5625 1.1328125 C16.6608721 2.46324875 16.69328592 3.79874594 16.6953125 5.1328125 C16.69724609 6.339375 16.69724609 6.339375 16.69921875 7.5703125 C16.69535156 8.4159375 16.69148437 9.2615625 16.6875 10.1328125 C16.69330078 11.40125 16.69330078 11.40125 16.69921875 12.6953125 C16.69792969 13.4996875 16.69664062 14.3040625 16.6953125 15.1328125 C16.69418457 15.8753125 16.69305664 16.6178125 16.69189453 17.3828125 C16.5625 19.1328125 16.5625 19.1328125 15.5625 20.1328125 C14.08597336 20.23162047 12.60482764 20.26360495 11.125 20.265625 C9.78308594 20.26755859 9.78308594 20.26755859 8.4140625 20.26953125 C7.47304688 20.26566406 6.53203125 20.26179688 5.5625 20.2578125 C4.15097656 20.26361328 4.15097656 20.26361328 2.7109375 20.26953125 C1.81632813 20.26824219 0.92171875 20.26695312 0 20.265625 C-0.82628906 20.26449707 -1.65257812 20.26336914 -2.50390625 20.26220703 C-4.4375 20.1328125 -4.4375 20.1328125 -5.4375 19.1328125 C-5.5358721 17.80237625 -5.56828592 16.46687906 -5.5703125 15.1328125 C-5.57160156 14.3284375 -5.57289063 13.5240625 -5.57421875 12.6953125 C-5.57035156 11.8496875 -5.56648437 11.0040625 -5.5625 10.1328125 C-5.56636719 9.2871875 -5.57023438 8.4415625 -5.57421875 7.5703125 C-5.57292969 6.7659375 -5.57164062 5.9615625 -5.5703125 5.1328125 C-5.56918457 4.3903125 -5.56805664 3.6478125 -5.56689453 2.8828125 C-5.30304226 -0.68566503 -3.04218604 0.00415275 0 0 Z " fill="#000000" transform="translate(829.4375,177.8671875)"/>
<path d="M0 0 C0.89460937 -0.00128906 1.78921875 -0.00257813 2.7109375 -0.00390625 C3.65195312 -0.00003906 4.59296875 0.00382813 5.5625 0.0078125 C6.97402344 0.00201172 6.97402344 0.00201172 8.4140625 -0.00390625 C9.75597656 -0.00197266 9.75597656 -0.00197266 11.125 0 C11.95128906 0.00112793 12.77757812 0.00225586 13.62890625 0.00341797 C15.5625 0.1328125 15.5625 0.1328125 16.5625 1.1328125 C16.6608721 2.46324875 16.69328592 3.79874594 16.6953125 5.1328125 C16.69724609 6.339375 16.69724609 6.339375 16.69921875 7.5703125 C16.69535156 8.4159375 16.69148437 9.2615625 16.6875 10.1328125 C16.69330078 11.40125 16.69330078 11.40125 16.69921875 12.6953125 C16.69792969 13.4996875 16.69664062 14.3040625 16.6953125 15.1328125 C16.69418457 15.8753125 16.69305664 16.6178125 16.69189453 17.3828125 C16.5625 19.1328125 16.5625 19.1328125 15.5625 20.1328125 C14.08597336 20.23162047 12.60482764 20.26360495 11.125 20.265625 C9.78308594 20.26755859 9.78308594 20.26755859 8.4140625 20.26953125 C7.47304688 20.26566406 6.53203125 20.26179688 5.5625 20.2578125 C4.15097656 20.26361328 4.15097656 20.26361328 2.7109375 20.26953125 C1.81632813 20.26824219 0.92171875 20.26695312 0 20.265625 C-0.82628906 20.26449707 -1.65257812 20.26336914 -2.50390625 20.26220703 C-4.4375 20.1328125 -4.4375 20.1328125 -5.4375 19.1328125 C-5.5358721 17.80237625 -5.56828592 16.46687906 -5.5703125 15.1328125 C-5.57160156 14.3284375 -5.57289063 13.5240625 -5.57421875 12.6953125 C-5.57035156 11.8496875 -5.56648437 11.0040625 -5.5625 10.1328125 C-5.56636719 9.2871875 -5.57023438 8.4415625 -5.57421875 7.5703125 C-5.57292969 6.7659375 -5.57164062 5.9615625 -5.5703125 5.1328125 C-5.56918457 4.3903125 -5.56805664 3.6478125 -5.56689453 2.8828125 C-5.30304226 -0.68566503 -3.04218604 0.00415275 0 0 Z " fill="#000000" transform="translate(640.4375,177.8671875)"/>
</svg>
