<svg xmlns="http://www.w3.org/2000/svg" viewBox="0 0 1280 640"><path fill="#212367" d="M353.777 161.238c5.489 3.333 11.027 6.569 16.598 9.762 27.247 15.692 27.247 15.692 31.162 27.637.658 3.358.607 6.686.605 10.094l.01 2.347c.008 1.68.013 3.36.017 5.04.007 2.666.023 5.333.041 7.999.052 7.58.1 15.16.116 22.741.01 4.641.04 9.282.081 13.922.012 1.761.018 3.523.015 5.284-.337 14.978-.337 14.978 6.365 27.9 1.973 1.846 4.04 3.431 6.213 5.036l2.719 2.137c8.354 6.433 8.354 6.433 18.527 7.61 4.092-.814 7.404-2.346 11.067-4.247 8.106-3.945 14.328-5.857 23.187-2.938 10.688 4.402 21.79 10.599 26.809 21.446 3.265 9.407 3.369 23.424-.086 32.762-5.572 10.164-15.462 17.522-26.348 21.168-10.062 2.511-17.576.634-26.875-3.938-7.715-4.645-14.12-9.462-17.094-18.223-.94-3.923-1.226-7.644-1.344-11.652-.459-9.507-1.445-15.539-8.562-22.125-2.29-1.953-4.633-3.829-7-5.688l-1.828-1.47c-4.95-3.901-9.353-6.498-15.91-6.268-4.93.928-9.02 3.87-13.262 6.426a967.632 967.632 0 0 1-3.98 2.285c-9.167 5.243-18.265 10.604-27.358 15.973a5513.67 5513.67 0 0 1-5.234 3.083c-14.649 7.58-14.649 7.58-23.428 20.659-.302 3.06-.328 6.103-.336 9.176l-.02 2.679c-.01 1.866-.015 3.733-.015 5.6a710.43 710.43 0 0 1-.078 8.512c-.006 1.82-.01 3.64-.012 5.459l-.043 2.545c.044 5.795 1.239 10.191 4.504 15.029 3.408 3.304 7.112 5.792 11.151 8.233 8.163 4.934 14.926 9.88 18.254 19.222 1.302 5.567 1.022 11.297.97 16.983l.035 3.853c-.03 9.87-1.083 17.829-7.41 25.709-9.595 8.077-23.715 17.551-36.617 17.266-13.006-1.45-24.867-9.707-34.383-18.266-1.61-2.14-1.61-2.14-2.75-4.25l-1.172-2.078c-2.75-6.816-3.443-13.688-3.39-20.985l.017-2.505c.205-10.422 1.727-19.548 9.295-27.182 5.755-5.244 12.335-9.097 19.082-12.91 4.397-3.15 6.87-6.805 7.918-12.09.272-5.47.313-10.939.35-16.415.017-1.796.044-3.592.082-5.388.741-14.557.741-14.557-5.432-27.197-3.14-2.588-6.469-4.482-10.063-6.375a6451.53 6451.53 0 0 1-5.972-3.336l-3.036-1.663c-4.378-2.43-8.65-5.025-12.929-7.626a4827.64 4827.64 0 0 0-4.871-2.926l-2.492-1.494a4652.074 4652.074 0 0 0-14.7-8.767c-.946-.566-1.893-1.131-2.869-1.713l-2.666-1.58-2.36-1.404c-4.103-2.242-7.423-2.424-12.042-2.116-5.902 2.075-10.344 5.214-15.188 9.125l-2.115 1.61c-6.19 4.97-9.157 10.182-10.2 18.074l-.06 3.628C196.936 351.122 194.963 359.42 187 367c-9.154 6.747-19.288 12.695-31 11-10.995-2.749-22.99-9.036-29-19-2.857-6.461-3.467-12.434-3.375-19.438l-.035-2.658c.036-8.232 1.349-16.929 7.222-23.111 8.892-7.288 20.131-14.224 31.938-13.918 5.235.709 9.536 3.154 14.134 5.59 4.712 2.455 8.758 4.198 14.116 3.535 9.385-3.181 20.448-11.762 26-20 1.935-4.712 2.284-9.005 2.255-14.034l.011-2.373c.007-1.692.01-3.385.008-5.077 0-2.688.012-5.376.03-8.063.045-7.64.07-15.28.077-22.919.005-4.682.03-9.363.065-14.045.01-1.774.012-3.549.007-5.323-.06-21.15-.06-21.15 6.55-29.781 5.431-4.37 10.994-8.001 17.122-11.322a6207.14 6207.14 0 0 0 5.633-3.141l2.743-1.522c3.21-1.798 6.354-3.679 9.499-5.588l3.512-2.113a5188.12 5188.12 0 0 0 7.791-4.693c3.18-1.916 6.366-3.819 9.557-5.716 1.286-.767 2.57-1.538 3.85-2.313 27.322-16.52 42.99-4.983 68.067 10.261Zm-59.214 1.95-2.848 1.632A503.276 503.276 0 0 0 283 170c-.9.545-1.8 1.09-2.728 1.65a963.175 963.175 0 0 0-13.061 8.104 369.651 369.651 0 0 1-10.797 6.523l-2.751 1.61a542.556 542.556 0 0 1-5.181 2.98c-7.02 4.107-11.283 8.02-13.482 16.133-.189 2.5-.276 5.008-.29 7.515l-.02 2.205c-.02 2.392-.024 4.783-.026 7.175l-.02 5.02c-.012 3.505-.016 7.01-.015 10.514 0 4.472-.027 8.943-.061 13.415-.022 3.457-.026 6.913-.025 10.37a617.153 617.153 0 0 1-.027 4.943c-.312 13.8-.312 13.8 6.103 25.598 4.201 3.943 9.251 6.706 14.256 9.495l5.078 2.887 2.565 1.45c3.725 2.12 7.417 4.295 11.107 6.476l2.075 1.221c3.646 2.148 7.289 4.301 10.929 6.458l2.312 1.367c1.452.859 2.903 1.719 4.352 2.58 8.171 5.05 8.171 5.05 17.457 6.811.944.03 1.887.062 2.86.094 8.369-1.466 15.865-6.958 23.015-11.344 6.064-3.686 12.154-7.275 18.375-10.688 6.368-3.54 12.589-7.299 18.75-11.187l2.602-1.595c5.766-3.7 9.036-6.898 11.23-13.544.586-3.135.562-6.168.58-9.356l.014-2.15c.015-2.342.022-4.685.027-7.027l.017-4.903c.01-3.426.017-6.852.02-10.279.006-4.375.03-8.75.058-13.126.019-3.377.024-6.753.026-10.13.003-1.613.01-3.225.024-4.837.397-13.184.397-13.184-5.243-24.748-5.519-4.654-11.18-8.288-17.543-11.68-10.084-5.525-19.874-11.413-29.605-17.531A553.518 553.518 0 0 0 327 163l-2.56-1.578c-10.64-6.036-19.759-4.325-29.877 1.766ZM148 321l-2.75 1.688c-4.287 4.406-6.454 9.73-6.688 15.875.389 7.433 3.097 13.215 8.438 18.437 5.857 4.296 11.897 5.006 19 4 6.188-1.8 10.549-5.619 14-11 2.888-7.22 2.955-14.071-.023-21.184-3.053-5.677-8.959-9.81-14.977-11.816-6.677-.803-11.355.447-17 4Zm296.41 4.969c-4.028 5.802-4.152 12.18-3.41 19.031 1.603 6.494 4.652 10.144 10.098 13.906 5.24 3.013 11.053 2.827 16.902 2.094 6.473-2.416 10.78-6.08 14.16-12.07 2.281-5.24 2.739-10.73 1.192-16.239-2.833-7.178-7.117-10.926-13.79-14.566-10.325-3.26-18.524-.49-25.152 7.844ZM287 433c-4.858 8.209-5.403 17.66-3.352 26.93 3.329 9.359 10.185 13.452 18.723 17.867 6.126 2.803 10.77 2.425 17 .351 6.389-2.79 12.991-7.085 16.629-13.148 3.256-9.638 3.871-21.588-.617-30.957-2.496-3.687-5.57-5.832-9.383-8.043l-2.426-1.473c-13.596-7.59-25.718-1.437-36.574 8.473Z"/><path fill="#894DA0" d="m554.102 177.855 2.641-.02 2.882-.003 2.958-.01c2.075-.005 4.15-.007 6.224-.007 3.152-.002 6.303-.02 9.455-.04 2.017-.003 4.034-.005 6.05-.005l2.833-.022c10.664.036 18.928 1.876 26.957 9.158 10.227 10.572 13.068 24.128 12.894 38.477C626.548 239.37 623.54 253.065 613 263c-8.255 6.355-15.992 7.303-26.148 7.23h-3.192c-2.213-.004-4.427-.012-6.641-.024-3.404-.019-6.807-.02-10.21-.02-2.153-.005-4.305-.011-6.457-.018l-3.1-.003-2.843-.02-2.514-.011C550 270 550 270 549 269a217.2 217.2 0 0 1-.13-8.36l-.005-2.655c-.004-2.912-.001-5.823.002-8.735l-.003-6.042c-.001-4.227.001-8.454.006-12.68.005-5.432.002-10.863-.004-16.294-.004-4.16-.002-8.321 0-12.482 0-2.003 0-4.006-.002-6.01-.003-2.794.001-5.588.007-8.383l-.007-2.534c.026-6.944.026-6.944 5.238-6.97ZM572 198v53c13.212.68 13.212.68 24.813-4.063 7.03-9.44 8.075-19.728 6.562-31.25-1.235-6.148-3.21-10.8-7.883-15.062C588.311 195.988 580.527 198 572 198Z"/><path fill="#09185D" d="m862.438 177.867 2.71-.004 2.852.012 2.852-.012 2.71.004 2.504.004C878 178 878 178 879 179c.158 1.779.251 3.563.316 5.348l.127 3.271.12 3.444.13 3.455c.107 2.827.209 5.654.307 8.482l3.043-1.469c6.813-2.904 14.847-2.707 21.906-.687 8.597 3.897 13.726 10.423 17.324 18.98 3.603 10.787 3.235 25.098-.949 35.594-4.343 8.468-10.198 14.54-19.324 17.582-2.372.148-4.749.221-7.125.25l-3.82.078c-3.083-.1-5.508-.755-8.39-1.836-5.107-1.848-9.788-1.8-15.165-1.617-1.781.043-3.562.082-5.344.117l-2.35.074C858 270 858 270 857 269a217.2 217.2 0 0 1-.13-8.36l-.005-2.655c-.004-2.912-.001-5.823.002-8.735l-.003-6.042c-.001-4.227.001-8.454.006-12.68.005-5.432.002-10.863-.004-16.294-.004-4.16-.002-8.321 0-12.482 0-2.003 0-4.006-.002-6.01-.003-2.794.001-5.588.007-8.383l-.007-2.534c.026-6.95.026-6.95 5.573-6.958ZM884 221c-4.268 6.03-5.704 11.592-5 19 .927 4.711 2.237 8.734 5.75 12.125 3.14 2.15 3.14 2.15 6.813 2 4.074-1.333 5.782-2.787 8.437-6.125 3.055-6.25 3.24-13.88 1.242-20.52-1.707-3.622-3.517-6.727-7.242-8.48-3.873-.403-6.86-.407-10 2Z"/><path fill="#001F4A" d="m1164.438 177.867 2.71-.004 2.852.012 2.852-.012 2.71.004 2.504.004C1180 178 1180 178 1181 179c.1 2.795.136 5.564.13 8.36l.005 2.655c.004 2.912.001 5.823-.002 8.735l.003 6.042c.001 4.227-.001 8.454-.006 12.68a8045.11 8045.11 0 0 0 .004 16.294c.004 4.16.002 8.321 0 12.482 0 2.003 0 4.006.002 6.01.003 2.794-.001 5.588-.007 8.383l.007 2.534c-.022 5.71-.022 5.71-1.136 6.825-1.554.05-3.11.036-4.664-.008l-2.902-.05a724.567 724.567 0 0 1-6.047-.157c-6.249-.13-6.249-.13-12.133 1.695-6.24 2.914-14.14 2.598-20.758.864-8.754-3.975-14.13-11.588-17.496-20.344-3.605-11.905-3.008-24.874 2.188-36.188 3.486-6.494 8.435-12.055 15.238-15.156 3.554-.906 7.051-1.05 10.699-1.094l2.064-.03c4.64.08 7.83 1.13 11.811 3.468l.076-2.187c.116-3.25.238-6.5.361-9.75l.12-3.444.127-3.271.11-3.031c.358-4.036 2.013-3.445 5.643-3.45ZM1139 224c-3.386 6.784-3.897 13.331-1.875 20.625 1.701 4.672 3.623 6.79 7.875 9.375 3.79.696 5.36.372 8.688-1.563 5.513-5.811 5.855-11.503 5.667-19.269-.61-5.445-2.516-9.207-6.23-13.168-5.771-2.716-10.319-.839-14.125 4Z"/><path fill="#031D50" d="m948.438 297.867 2.71-.004 2.852.012 2.852-.012a326928882.635 326928882.635 0 0 1 5.214.008C964 298 964 298 965 299c.16 2.955.26 5.89.316 8.848l.063 2.686c.066 2.843.125 5.686.183 8.529l.131 5.767c.108 4.723.209 9.447.307 14.17 1.543-1.686 3.084-3.374 4.625-5.063l1.401-1.511a80.003 80.003 0 0 0 6.888-8.586c1.856-2.19 2.76-2.771 5.605-3.375 2.986-.154 5.871-.078 8.856.098l3.098.095c2.512.082 5.018.197 7.527.342.574 2.391.574 2.391 1 5-1.188 1.738-1.188 1.738-3 3.313-3.368 3.086-6.387 6.298-9.352 9.773a95.745 95.745 0 0 1-3.234 3.578c-1.605 1.663-1.605 1.663-3.414 4.336.336 3.857 1.713 6.598 3.695 9.879l1.662 2.776 1.768 2.908 1.78 2.978a941.08 941.08 0 0 0 7.548 12.432l1.922 3.152 1.648 2.633c1.156 2.652.787 3.555-.023 6.242-3.707.263-7.412.422-11.125.563l-3.172.228c-7.6.216-7.6.216-10.63-2.551-1.59-2.343-2.85-4.688-4.073-7.24a978.67 978.67 0 0 0-2.336-4.16 575.473 575.473 0 0 1-2.039-3.902l-1.074-2.045A1227.72 1227.72 0 0 1 969 366l-3 2c-.491 2.204-.491 2.204-.477 4.754l-.093 2.838-.055 2.97c-.05 1.94-.105 3.878-.164 5.817l-.053 2.611C965 389 965 389 964 390c-1.477.099-2.958.13-4.438.133l-2.71.004-2.852-.012-2.852.012-2.71-.004-2.504-.004C944 390 944 390 943 389a217.2 217.2 0 0 1-.13-8.36l-.005-2.655c-.004-2.912-.001-5.823.002-8.735l-.003-6.042c-.001-4.227.001-8.454.006-12.68.005-5.432.002-10.863-.004-16.294-.004-4.16-.002-8.321 0-12.482 0-2.003 0-4.006-.002-6.01-.003-2.794.001-5.588.007-8.383l-.007-2.534c.026-6.95.026-6.95 5.573-6.958Z"/><path fill="#09195B" d="M322.375 200.5c5.42 3.216 10.318 8.608 12.625 14.5.447 2.596.824 5.139 1.125 7.75l.262 2.113c.21 1.712.413 3.424.613 5.137l6 2c.102 6.317.172 12.634.22 18.951.02 2.149.047 4.297.082 6.446.048 3.09.071 6.18.089 9.271l.062 2.905c.002 3.935-.224 6.861-1.71 10.531-4.612 3.187-9.558 2.607-15.024 2.56l-3.654.015c-2.548.003-5.097-.006-7.646-.027-3.905-.027-7.807 0-11.712.032-2.475-.004-4.95-.01-7.426-.02l-3.545.03c-7.896-.114-7.896-.114-11.48-2.59-1.83-4.524-1.75-8.6-1.647-13.436l.018-3.005c.022-3.16.072-6.317.123-9.476.02-2.145.038-4.29.055-6.435.044-5.251.11-10.501.195-15.752l6-2 .262-3c1.093-10.86 3.423-17.62 11.894-24.773 6.85-4.557 16.7-5.052 24.219-1.727Zm-21.688 12.438c-3.186 3.894-3.949 6.71-3.875 11.75l.02 2.949c-.095 2.319-.095 2.319 1.168 3.363 1.988.1 3.979.13 5.969.133l3.668.004 3.863-.012 3.863.012 3.668-.004 3.393-.004c2.507.163 2.507.163 3.576-1.129.752-7.121.417-12.27-4-18-6.991-5.668-14.617-4.673-21.313.938Zm5.438 32.187c-1.586 2.644-1.937 4.808-2.125 7.875l.984 1.836c1.296 2.76 1.18 4.82 1.079 7.851-.054 1.77-.083 3.542-.063 5.313 1.005 1.225 1.005 1.225 3.031 1.133l2.469-.008 2.469.008c2.026.092 2.026.092 3.031-1.133.032-2.751-.068-5.489-.16-8.238.166-2.858.832-4.285 2.16-6.762-.188-3.067-.539-5.231-2.125-7.875-3.418-2.051-7.332-2.051-10.75 0Z"/><path fill="#001F4C" d="M1093.117 202.684 1095 204l2.133 1.473c7.82 6.102 11.139 14.135 12.594 23.77.42 4.245.65 8.5.273 12.757-2.178 2.178-7.251 1.26-10.285 1.316l-2.82.063c-2.986.066-5.972.125-8.957.184l-6.057.13c-4.96.108-9.92.209-14.881.307 1.129 4.803 1.129 4.803 3.625 8.938 4.151 1.857 8.368 1.659 12.688.375 1.921-1.26 1.921-1.26 2.656-3.875C1088 247 1088 247 1090.116 246.593c2.705-.086 5.367-.027 8.072.095l2.85.068c2.322.059 4.641.141 6.962.244 1.5 5.258.093 7.912-2.418 12.566-4.276 6.577-10.975 10.536-18.312 13.02-10.806 1.971-21.65 1.173-31.028-4.684-6.854-5.08-10.242-12.9-11.867-21.027-1.33-13.741-.363-26.551 8.156-37.918 9.327-10.316 28.31-13.182 40.586-6.273ZM1068 223l-1 4h19c-1.012-5.601-1.012-5.601-5-9-6.309-.901-9.005-.327-13 5Z"/><path fill="#422780" d="M714.129 202.809 716 204l1.777 1.098c4.204 3.032 6.707 7.024 8.223 11.902.34 3.04.405 5.964 0 9-2.06 2.06-6.217 1.414-9.063 1.563l-2.298.13c-1.88.107-3.76.207-5.639.307l2.16.594c7.215 2.253 11.67 5.019 15.84 11.406 2.016 6.047 2.12 13.424-.5 19.313-4.018 6.767-9.579 10.791-16.996 13.105-4.314 1.003-8.53 1.015-12.942.957l-2.658.035c-9.07-.04-18.218-1.884-24.904-8.41-3.973-5.332-5.064-10.354-5-17 2.323-2.323 7.698-1.375 10.813-1.438l2.775-.138c2.604-.044 4.874-.014 7.412.576 2.512 2.965 2.512 2.965 4 6 2.45 1.225 4.142 1.167 6.875 1.188l2.617.042c2.669-.245 4.26-.794 6.508-2.23l1-2-3.813-1.125L696 247l-2.242-.667c-2.506-.747-5.007-1.508-7.508-2.27l-2.472-.73C676.208 241 671.003 238.116 667 231c-2.594-6.7-.772-13.683 2-20 8.657-13.434 31.645-15.09 45.129-8.191ZM688 222c5.984 2.327 11.58 4.43 18 5-1.924-5.314-1.924-5.314-6-9-5.975-.57-7.908-.632-12 4Z"/><path fill="#0A175E" d="M857.25 326.125c10.055 10.512 11.332 21.842 11.059 35.746-.441 10.096-3.914 17.28-11.309 24.129-8.764 7.617-18.76 7.756-29.856 7.195-7.97-.726-14.877-4.2-20.144-10.195-7.712-10.283-9.058-22.03-7.727-34.578 1.53-9.178 5.086-17.146 12.536-22.95 13.447-9.036 32.14-8.044 45.441.653ZM826 341c-4.46 5.876-5.69 11.748-5 19 .937 4.763 2.188 8.703 5.875 12 3.795 2.463 3.795 2.463 8.125 3 4.837-1.512 7.606-4.049 10.086-8.352 2.271-6.58 2.206-14.558-.473-20.964-2.47-4.11-4.98-6.163-9.55-7.622-3.972-.08-5.8.668-9.063 2.938Z"/><path fill="#041C53" d="m937.438 200.867 2.71-.004 2.852.012 2.852-.012 2.71.004 2.504.004C953 201 953 201 954 202c.117 1.385.167 2.775.19 4.165l.05 2.681.041 2.92.056 2.986c.059 3.166.112 6.332.163 9.498.068 4.151.142 8.302.219 12.453l.04 2.895.052 2.72.038 2.38c.164 2.501.61 4.856 1.151 7.302 5.44.895 9.88 1.56 15-1 .939-2.816 1.144-4.626 1.19-7.547l.05-2.78.041-2.993.056-3.074c.079-4.347.147-8.695.215-13.042.052-3.17.11-6.34.167-9.51l.04-3.004.052-2.761.038-2.443C973 202 973 202 974 201a67.856 67.856 0 0 1 4.438-.133l2.71-.004 2.852.012 2.852-.012 2.71.004 2.504.004C994 201 994 201 995 202c.1 2.08.128 4.165.13 6.248l.005 1.976c.004 2.165.001 4.33-.002 6.495l.003 4.495c.001 3.144-.001 6.288-.006 9.432-.005 4.039-.002 8.078.004 12.117.004 3.095.002 6.19 0 9.285 0 1.49 0 2.98.002 4.469.003 2.078-.001 4.157-.007 6.235l-.002 3.59C995 269 995 269 994 270a66.159 66.159 0 0 1-4.367.098l-2.684-.01-2.824-.026-2.8-.013c-1.722-.009-3.443-.02-5.164-.033-3.43-.025-5.142-.025-8.352 1.457-3.872 1.724-7.542 2.028-11.746 1.964l-2.13-.022c-7.447-.237-11.415-2.065-16.745-7.04-5.492-7.394-5.619-16.645-5.516-25.473l.006-3.38c.006-2.337.02-4.674.04-7.011.032-3.594.042-7.188.048-10.782.009-2.276.02-4.551.03-6.827l.014-3.27.029-2.996.02-2.647c.267-3.773 2.286-3.117 5.578-3.122Z"/><path fill="#051B56" d="M923.285 322.816 925 324l3.25 2.125c5.79 6.053 8.21 12.665 8.805 20.941C937 349 937 349 936 350c-3.115.332-6.245.325-9.375.375l-2.656.113c-2.422.034-4.597.006-6.969-.488-2.023-2.352-2.023-2.352-3-5-1.137-2.785-1.137-2.785-3-5-3.704-1.098-6.04-1.283-9.75-.188-4.445 4.322-5.381 10.718-5.625 16.75.197 5.286 1.331 11.044 4.832 15.145 2.159 1.809 3.747 2.093 6.543 2.293 2.673-.285 2.673-.285 5-2 1.252-2.018 2.245-4.05 3.203-6.223C916 364 916 364 917 363a61.468 61.468 0 0 1 4.219-.133l2.574-.004 2.707.012 2.707-.012 2.574.004 2.377.004C936 363 936 363 937 364c.231 8.326-2.248 14.872-7.828 21.012-6.838 6.42-13.77 8.55-23.047 8.425l-2.388-.02c-9.097-.25-16.325-2.856-22.737-9.417-7.98-10.736-9.06-22.906-7.691-35.938 1.613-10.28 5.443-17.533 13.691-24.062 9.289-6.227 26.543-6.759 36.285-1.184Z"/><path fill="#16156B" d="m735.656 297.867 2.848-.004 2.996.012 2.996-.012 2.848.004 2.63.004C752 298 752 298 753 299c.094 2.24.117 4.482.114 6.723v2.128c0 2.333-.009 4.665-.016 6.997l-.005 4.838a6785.7 6785.7 0 0 1-.024 12.76c-.01 4.336-.015 8.672-.02 13.01-.01 8.514-.028 17.029-.049 25.544l3.748-.016c4.571-.018 9.143-.03 13.714-.039 1.982-.005 3.964-.012 5.945-.02 2.843-.013 5.685-.018 8.527-.023l2.702-.015c2.121 0 4.243.05 6.364.113 1.886 1.886 1.132 4.578 1.137 7.082l-.012 2.418.012 2.418c-.01 5.955-.01 5.955-1.137 7.082-1.958.1-3.92.128-5.88.13l-3.813.009-4.15-.006a4268.346 4268.346 0 0 1-13.093-.002 3699.98 3699.98 0 0 0-11.391.003c-2.91.004-5.82.002-8.73 0-1.4 0-2.8 0-4.2.002-1.954.003-3.908-.002-5.862-.007l-3.376-.002C731 390 731 390 730 389a217.2 217.2 0 0 1-.13-8.36l-.005-2.655c-.004-2.912-.001-5.823.002-8.735l-.003-6.042c-.001-4.227.001-8.454.006-12.68.005-5.432.002-10.863-.004-16.294-.004-4.16-.002-8.321 0-12.482 0-2.003 0-4.006-.002-6.01-.003-2.794.001-5.588.007-8.383l-.007-2.534c.026-6.95.026-6.95 5.792-6.958Z"/><path fill="#021E4F" d="m1014.438 184.867 2.71-.004 2.852.012 2.852-.012 2.71.004 2.504.004C1030 185 1030 185 1031 186c.073 2.697.092 5.367.063 8.063l-.014 2.298c-.012 1.88-.03 3.76-.049 5.639l3.938-.063A59.19 59.19 0 0 1 1039 202c1 1 1 1 1.133 4.125l-.008 3.875.008 3.875C1040 217 1040 217 1039 218h-8l1 36 7 1c1.988 1.988 1.23 5.727 1.25 8.438l.063 2.103c.015 2.018.015 2.018-.313 5.459-3.689 2.46-6.545 2.332-10.813 2.313l-2.119.048c-5.516.005-9.56-1.127-13.713-4.826-3.47-4.375-4.485-7.359-4.469-12.845v-2.547l.016-2.721.005-2.808c.005-2.955.018-5.91.03-8.864A7587.407 7587.407 0 0 1 1009 218c-1.702.03-1.702.03-3.438.063C1002 218 1002 218 1001 217c-.1-2.332-.13-4.666-.125-7l-.008-3.875C1001 203 1001 203 1002 202c2.333-.04 4.667-.042 7 0l-.035-3.465-.028-4.472-.025-2.288c-.009-1.925.036-3.85.088-5.775 1.59-1.59 3.239-1.13 5.438-1.133Z"/><path fill="#291B75" d="m743.438 184.867 2.71-.004 2.852.012 2.852-.012 2.71.004 2.504.004C759 185 759 185 760 186c.073 2.697.092 5.367.063 8.063l-.014 2.298c-.012 1.88-.03 3.76-.049 5.639l3.938-.063A59.19 59.19 0 0 1 768 202c1 1 1 1 1.133 4.125l-.008 3.875.008 3.875C769 217 769 217 768 218h-8l1 36 7 1c1.988 1.988 1.23 5.727 1.25 8.438l.063 2.103c.015 2.018.015 2.018-.313 5.459-3.689 2.46-6.545 2.332-10.813 2.313l-2.119.048c-5.516.005-9.56-1.127-13.713-4.826-3.47-4.375-4.485-7.359-4.469-12.845v-2.547l.016-2.721.005-2.808c.005-2.955.018-5.91.03-8.864A7587.407 7587.407 0 0 1 738 218c-1.702.03-1.702.03-3.438.063C731 218 731 218 730 217c-.1-2.332-.13-4.666-.125-7l-.008-3.875C730 203 730 203 731 202c2.333-.04 4.667-.042 7 0l-.035-3.465-.028-4.472-.025-2.288c-.009-1.925.036-3.85.088-5.775 1.59-1.59 3.239-1.13 5.438-1.133Z"/><path fill="#17146C" d="m812.125 199.875 2.695-.008C817 200 817 200 818 201c.099 1.477.13 2.958.133 4.438l.004 2.71-.012 2.852.012 2.852-.004 2.71-.004 2.504C818 221 818 221 817 222a88.748 88.748 0 0 1-4.125-.125c-4.795-.03-7.76.606-11.875 3.125-2.236 4.908-2.323 9.576-2.379 14.863l-.051 2.523a1494.97 1494.97 0 0 0-.133 7.927c-.043 2.66-.09 5.32-.142 7.98a769.354 769.354 0 0 0-.08 4.954c-.103 5.641-.103 5.641-1.215 6.753-1.477.099-2.958.13-4.438.133l-2.71.004-2.852-.012-2.852.012-2.71-.004-2.504-.004C777 270 777 270 776 269a132.8 132.8 0 0 1-.13-6.248l-.005-1.976c-.004-2.165-.001-4.33.002-6.495l-.003-4.495c-.001-3.144.001-6.288.006-9.432.005-4.039.002-8.078-.004-12.117-.004-3.095-.002-6.19 0-9.285 0-1.49 0-2.98-.002-4.469-.003-2.078.001-4.157.007-6.235l.002-3.59C776 202 776 202 777 201a69.436 69.436 0 0 1 4.473-.098l2.724.01 2.865.025 2.877.014c2.354.012 4.707.028 7.061.049l2 4 2.313-1.938c3.688-2.83 6.29-3.2 10.812-3.187Z"/><path fill="#0E1564" d="m829.438 200.867 2.71-.004 2.852.012 2.852-.012 2.71.004 2.504.004C845 201 845 201 846 202c.1 2.08.128 4.165.13 6.248l.005 1.976c.004 2.165.001 4.33-.002 6.495l.003 4.495c.001 3.144-.001 6.288-.006 9.432-.005 4.039-.002 8.078.004 12.117.004 3.095.002 6.19 0 9.285 0 1.49 0 2.98.002 4.469.003 2.078-.001 4.157-.007 6.235l-.002 3.59C846 269 846 269 845 270c-1.477.099-2.958.13-4.438.133l-2.71.004-2.852-.012-2.852.012-2.71-.004-2.504-.004C825 270 825 270 824 269a132.8 132.8 0 0 1-.13-6.248l-.005-1.976c-.004-2.165-.001-4.33.002-6.495l-.003-4.495c-.001-3.144.001-6.288.006-9.432.005-4.039.002-8.078-.004-12.117-.004-3.095-.002-6.19 0-9.285 0-1.49 0-2.98-.002-4.469-.003-2.078.001-4.157.007-6.235l.002-3.59c.208-4.343 1.65-3.785 5.564-3.79Z"/><path fill="#5F358D" d="m640.438 200.867 2.71-.004 2.852.012 2.852-.012 2.71.004 2.504.004C656 201 656 201 657 202c.1 2.08.128 4.165.13 6.248l.005 1.976c.004 2.165.001 4.33-.002 6.495l.003 4.495c.001 3.144-.001 6.288-.006 9.432-.005 4.039-.002 8.078.004 12.117.004 3.095.002 6.19 0 9.285 0 1.49 0 2.98.002 4.469.003 2.078-.001 4.157-.007 6.235l-.002 3.59C657 269 657 269 656 270c-1.477.099-2.958.13-4.438.133l-2.71.004-2.852-.012-2.852.012-2.71-.004-2.504-.004C636 270 636 270 635 269a132.8 132.8 0 0 1-.13-6.248l-.005-1.976c-.004-2.165-.001-4.33.002-6.495l-.003-4.495c-.001-3.144.001-6.288.006-9.432.005-4.039.002-8.078-.004-12.117-.004-3.095-.002-6.19 0-9.285 0-1.49 0-2.98-.002-4.469-.003-2.078.001-4.157.007-6.235l.002-3.59c.208-4.343 1.65-3.785 5.564-3.79Z"/><path fill="#0F1466" d="m829.438 177.867 2.71-.004 2.852.012 2.852-.012 2.71.004 2.504.004C845 178 845 178 846 179c.098 1.33.13 2.666.133 4l.004 2.438-.012 2.562.012 2.563-.004 2.437-.004 2.25C846 197 846 197 845 198c-1.477.099-2.958.13-4.438.133l-2.71.004-2.852-.012-2.852.012-2.71-.004-2.504-.004C825 198 825 198 824 197a55.397 55.397 0 0 1-.133-4l-.004-2.438.012-2.562-.012-2.563.004-2.437.004-2.25c.263-3.568 2.524-2.879 5.567-2.883Z"/><path fill="#693A91" d="m640.438 177.867 2.71-.004 2.852.012 2.852-.012 2.71.004 2.504.004C656 178 656 178 657 179c.098 1.33.13 2.666.133 4l.004 2.438-.012 2.562.012 2.563-.004 2.437-.004 2.25C657 197 657 197 656 198c-1.477.099-2.958.13-4.438.133l-2.71.004-2.852-.012-2.852.012-2.71-.004-2.504-.004C636 198 636 198 635 197a55.397 55.397 0 0 1-.133-4l-.004-2.438.012-2.562-.012-2.563.004-2.437.004-2.25c.263-3.568 2.524-2.879 5.567-2.883Z"/></svg>